<?xml version="1.0" encoding="UTF-8"?>
<svg width="24px" height="24px" viewBox="0 0 24 24" version="1.1" xmlns="http://www.w3.org/2000/svg" xmlns:xlink="http://www.w3.org/1999/xlink">
    <title>Icon / add_person</title>
    <g id="Icon-/-add_person" stroke="none" stroke-width="1" fill="none" fill-rule="evenodd" fill-opacity="0.86">
        <path d="M7.42090909,9.90909091 L7.42090909,7.45454545 L5.78454545,7.45454545 L5.78454545,9.90909091 L3.33,9.90909091 L3.33,11.5454545 L5.78454545,11.5454545 L5.78454545,14 L7.42090909,14 L7.42090909,11.5454545 L9.87545455,11.5454545 L9.87545455,9.90909091 L7.42090909,9.90909091 Z M15.3414728,11.3 C13.5740061,11.3 12.1414728,9.76311776 12.1414728,8.0327839 C12.1414728,6.30245004 13.5740061,4.9 15.3414728,4.9 C17.1089395,4.9 18.5414728,6.30245004 18.5414728,8.0327839 C18.5414728,9.76311776 17.1089395,11.3 15.3414728,11.3 Z M10,17.2066789 C10,17.9858911 10.5397333,18.6435748 11.2675556,18.7605884 C12.5813333,18.9716642 14.0128,19.0879252 15.5111111,19.0879252 C16.8661333,19.0879252 18.1656889,18.9927342 19.3731556,18.8177783 C20.1123556,18.7109235 20.6666667,18.0502298 20.6666667,17.2604825 L20.6666667,17.2066789 C20.6666667,14.08983 18.2787556,12.3154385 15.3333333,12.3154385 C12.3879111,12.3154385 10,14.08983 10,17.2066789 Z" id="Shape" fill="#000000"></path>
    </g>
</svg>