<?xml version="1.0" encoding="UTF-8"?>
<svg width="24px" height="24px" viewBox="0 0 24 24" version="1.1" xmlns="http://www.w3.org/2000/svg" xmlns:xlink="http://www.w3.org/1999/xlink">
    <title>Icon / ai</title>
    <g id="Icon-/-ai" stroke="none" stroke-width="1" fill="none" fill-rule="evenodd" fill-opacity="0.86">
        <path d="M5.84571939,2.42907737 C7.97674995,2.14302579 10.0691258,2 12.1228471,2 C14.1269404,2 16.1310336,2.1361969 18.1351269,2.40859071 L18.1349934,2.40956628 C19.9213857,2.65408815 21.3233683,4.06353506 21.5584012,5.85120059 C21.8524665,8.0776696 22,10.2167931 22,12.2687027 C22,14.2402016 21.8638031,16.2117006 21.5914093,18.1831995 L21.5912273,18.1831743 C21.3453805,19.9581921 19.9490186,21.3531174 18.1737486,21.597137 C16.2154462,21.8657798 14.2103325,22 12.1584353,22 C10.0553536,22 7.95227184,21.859 5.84919012,21.5770001 L5.84909098,21.5777446 C4.06387625,21.3400002 2.65768255,19.9385314 2.41393101,18.1541269 C2.13778867,16.1228184 2,14.0818997 2,12.031448 C2,9.97505731 2.13858802,7.91866659 2.41576407,5.86227586 L2.4153585,5.86222151 C2.65476966,4.07573528 4.05944282,2.67004797 5.8457558,2.42934753 Z M9.83127273,7.45454545 C10.0518788,7.45454545 10.2271818,7.50378788 10.3571818,7.60227273 C10.4438485,7.66792929 10.5103805,7.7397138 10.5567778,7.81762626 L10.6112727,7.93909091 L13.0694545,15.0654545 L13.1117636,15.2354 C13.1489515,15.4490727 13.1092424,15.6110606 12.9926364,15.7213636 C12.8468788,15.8592424 12.6518788,15.9281818 12.4076364,15.9281818 C12.1633939,15.9360606 11.9821818,15.8828788 11.864,15.7686364 C11.7852121,15.6924747 11.7186801,15.6066835 11.664404,15.5112626 L11.5921818,15.3609091 L11.0249091,13.9427273 L8.62581818,13.9427273 L8.10581818,15.3018182 L8.02571717,15.4784343 C7.96618855,15.587862 7.89440404,15.6806566 7.81036364,15.7568182 C7.68430303,15.8710606 7.49915152,15.9281818 7.25490909,15.9281818 C7.01066667,15.9281818 6.81566667,15.8612121 6.66990909,15.7272727 C6.54844444,15.6156566 6.51588973,15.4383838 6.57224495,15.1954545 L6.61672727,15.0418182 L9.05127273,7.93909091 L9.10576768,7.81762626 C9.15216498,7.7397138 9.21869697,7.66792929 9.30536364,7.60227273 C9.43536364,7.50378788 9.61066667,7.45454545 9.83127273,7.45454545 Z M9.83127273,9.67636364 L8.92127273,12.6072727 L10.7412727,12.6072727 L9.83127273,9.67636364 Z M15.214,15.9281818 C15.4897576,15.9281818 15.688697,15.8651515 15.8108182,15.7390909 C15.9024091,15.6445455 15.9596534,15.5145455 15.9825511,15.3490909 L15.994,15.1718182 L15.994,8.19909091 C15.994,7.92333333 15.9270303,7.73030303 15.7930909,7.62 C15.6591515,7.50969697 15.4661212,7.45454545 15.214,7.45454545 C14.7657845,7.45454545 14.5167759,7.65375234 14.4669742,8.05216611 L14.4576364,8.21090909 L14.4576364,15.1836364 C14.4576364,15.4278788 14.5147576,15.6130303 14.629,15.7390909 C14.7432424,15.8651515 14.9382424,15.9281818 15.214,15.9281818 Z" id="AI" fill="#000000"></path>
    </g>
</svg>