<?xml version="1.0" encoding="UTF-8"?>
<svg width="24px" height="24px" viewBox="0 0 24 24" version="1.1" xmlns="http://www.w3.org/2000/svg" xmlns:xlink="http://www.w3.org/1999/xlink">
    <title>Icon / alarm</title>
    <g id="Icon-/-alarm" stroke="none" stroke-width="1" fill="none" fill-rule="evenodd" fill-opacity="0.86">
        <path d="M12,4 C16.9705627,4 21,8.02943725 21,13 C21,17.9705627 16.9705627,22 12,22 C7.02943725,22 3,17.9705627 3,13 C3,8.02943725 7.02943725,4 12,4 Z M12,6 C8.13400675,6 5,9.13400675 5,13 C5,16.8659932 8.13400675,20 12,20 C15.8659932,20 19,16.8659932 19,13 C19,9.13400675 15.8659932,6 12,6 Z M13.0245246,8.49459737 L13.024,12.674 L15.964482,15.6138077 L14.5502685,17.0280212 L11.0147346,13.4924873 L11.024,13.482 L11.0245246,8.49459737 L13.0245246,8.49459737 Z M17.9071529,2 L22.0029131,4.86788218 L20.8557602,6.50618627 L16.76,3.63830409 L17.9071529,2 Z M6.09576022,2 L7.24291309,3.63830409 L3.14715287,6.50618627 L2,4.86788218 L6.09576022,2 Z" id="形状结合" fill="#000000"></path>
    </g>
</svg>