<?xml version="1.0" encoding="UTF-8"?>
<svg width="24px" height="24px" viewBox="0 0 24 24" version="1.1" xmlns="http://www.w3.org/2000/svg" xmlns:xlink="http://www.w3.org/1999/xlink">
    <title>Icon / arrow_down</title>
    <g id="Icon-/-arrow_down" stroke="none" stroke-width="1" fill="none" fill-rule="evenodd" fill-opacity="0.86">
        <path d="M19.295,11.295 C18.9055372,10.9055372 18.2741804,10.9052546 17.8843691,11.2943686 L13,16.17 L13,16.17 L13,5 C13,4.44771525 12.5522847,4 12,4 C11.4477153,4 11,4.44771525 11,5 L11,16.17 L11,16.17 L6.12647346,11.2877395 C5.73693226,10.8962336 5.10376754,10.8956667 4.71289379,11.2858413 C4.71268258,11.2860521 4.71247147,11.286263 4.71289322,11.2871068 L4.70710678,11.2928932 C4.31658249,11.6834175 4.31658249,12.3165825 4.70710678,12.7071068 L11.2928932,19.2928932 C11.6834175,19.6834175 12.3165825,19.6834175 12.7071068,19.2928932 L19.295,12.705 C19.6843607,12.3156393 19.6843607,11.6843607 19.295,11.295 Z" id="Path" fill="#000000"></path>
    </g>
</svg>