<?xml version="1.0" encoding="UTF-8"?>
<svg width="24px" height="24px" viewBox="0 0 24 24" version="1.1" xmlns="http://www.w3.org/2000/svg" xmlns:xlink="http://www.w3.org/1999/xlink">
    <title>Icon / arrow_up</title>
    <g id="Icon-/-arrow_up" stroke="none" stroke-width="1" fill="none" fill-rule="evenodd" fill-opacity="0.86">
        <path d="M4.705,12.705 C5.0944628,13.0944628 5.72581956,13.0947454 6.11563087,12.7056314 L11,7.83 L11,7.83 L11,19 C11,19.5522847 11.4477153,20 12,20 C12.5522847,20 13,19.5522847 13,19 L13,7.83 L13,7.83 L17.8735265,12.7122605 C18.2630677,13.1037664 18.8962325,13.1043333 19.2871062,12.7141587 C19.2873174,12.7139479 19.2875285,12.713737 19.2871068,12.7128932 L19.2928932,12.7071068 C19.6834175,12.3165825 19.6834175,11.6834175 19.2928932,11.2928932 L12.7071068,4.70710678 C12.3165825,4.31658249 11.6834175,4.31658249 11.2928932,4.70710678 L4.705,11.295 C4.31563925,11.6843607 4.31563925,12.3156393 4.705,12.705 Z" id="Path" fill="#000000"></path>
    </g>
</svg>