<?xml version="1.0" encoding="UTF-8"?>
<svg width="24px" height="24px" viewBox="0 0 24 24" version="1.1" xmlns="http://www.w3.org/2000/svg" xmlns:xlink="http://www.w3.org/1999/xlink">
    <title>Icon / arrow_right</title>
    <g id="Icon-/-arrow_right" stroke="none" stroke-width="1" fill="none" fill-rule="evenodd" fill-opacity="0.86">
        <path d="M11.295,4.705 C10.9055372,5.0944628 10.9052546,5.72581956 11.2943686,6.11563087 L16.17,11 L16.17,11 L5,11 C4.44771525,11 4,11.4477153 4,12 C4,12.5522847 4.44771525,13 5,13 L16.17,13 L16.17,13 L11.2943686,17.8843691 C10.9052546,18.2741804 10.9055372,18.9055372 11.295,19.295 C11.6843607,19.6843607 12.3156393,19.6843607 12.705,19.295 L19.2928932,12.7071068 C19.6834175,12.3165825 19.6834175,11.6834175 19.2928932,11.2928932 L12.705,4.705 C12.3156393,4.31563925 11.6843607,4.31563925 11.295,4.705 Z" id="Path" fill="#000000"></path>
    </g>
</svg>