<?xml version="1.0" encoding="UTF-8"?>
<svg width="24px" height="24px" viewBox="0 0 24 24" version="1.1" xmlns="http://www.w3.org/2000/svg" xmlns:xlink="http://www.w3.org/1999/xlink">
    <title>Icon / calendar_outline</title>
    <g id="Icon-/-calendar_outline" stroke="none" stroke-width="1" fill="none" fill-rule="evenodd" fill-opacity="0.86">
        <path d="M8.81494413,3 C8.91958756,3 9.00441782,3.08483026 9.00441782,3.18947368 L9.00386443,4.99110289 L14.9932511,4.99110289 L14.9932511,3.18947368 C14.9932511,3.08483026 15.0780814,3 15.1827248,3 L16.838355,3 C16.9429984,3 17.0278287,3.08483026 17.0278287,3.18947368 L17.0278287,4.99110289 L19.5,4.99110289 C20.3284271,4.99110289 21,5.66267577 21,6.49110289 L21,19.5 C21,20.3284271 20.3284271,21 19.5,21 L4.5,21 C3.67157288,21 3,20.3284271 3,19.5 L3,6.49110289 C3,5.66267577 3.67157288,4.99110289 4.5,4.99110289 L7.00150923,4.99110289 L7.00150923,4.99110289 L7.00206261,3.18947368 C7.00206261,3.08483026 7.08689287,3 7.1915363,3 L8.81494413,3 Z M5,7 L19,7 L19,19 L5,19 L5,7 Z M16.6363636,14 L7.36363636,14 C7.1879094,14 7.04129553,14.1371128 7.0073878,14.319386 L7,14.4 L7,15.6 C7,15.7932997 7.124648,15.9545749 7.29035095,15.9918734 L7.36363636,16 L16.6363636,16 C16.8120906,16 16.9587045,15.8628872 16.9926122,15.680614 L17,15.6 L17,14.4 C17,14.1790861 16.8371945,14 16.6363636,14 Z M12.6571429,10 L7.34285714,10 C7.17717172,10 7.03893578,10.1371128 7.00696564,10.3193861 L7,10.4 L7,11.6 C7,11.7932997 7.11752526,11.9545749 7.27375947,11.9918734 L7.34285714,12 L12.6571429,12 C12.8228283,12 12.9610642,11.8628872 12.9930344,11.6806139 L13,11.6 L13,10.4 C13,10.1790861 12.8464976,10 12.6571429,10 Z" id="calendar" fill="#000000"></path>
    </g>
</svg>
