<?xml version="1.0" encoding="UTF-8"?>
<svg width="24px" height="24px" viewBox="0 0 24 24" version="1.1" xmlns="http://www.w3.org/2000/svg" xmlns:xlink="http://www.w3.org/1999/xlink">
    <title>Icon / calendar</title>
    <g id="Icon-/-calendar" stroke="none" stroke-width="1" fill="none" fill-rule="evenodd" fill-opacity="0.86">
        <path d="M8.92596558,4 C9.01898196,4 9.09438664,4.07540467 9.09438664,4.16842105 L9.09389474,5.68421053 L14.9473684,5.68421053 L14.9473684,4.16842105 C14.9473684,4.07540467 15.0227731,4 15.1157895,4 L16.8842105,4 C16.9772269,4 17.0526316,4.07540467 17.0526316,4.16842105 L17.0526316,5.68421053 L18.5,5.68421053 C19.3284271,5.68421053 20,6.3557834 20,7.18421053 L20,18.5 C20,19.3284271 19.3284271,20 18.5,20 L5.5,20 C4.67157288,20 4,19.3284271 4,18.5 L4,7.18421053 C4,6.3557834 4.67157288,5.68421053 5.5,5.68421053 L6.98863158,5.68421053 L6.98863158,5.68421053 L6.98912348,4.16842105 C6.98912348,4.07540467 7.06452815,4 7.15754453,4 L8.92596558,4 Z M16.0315789,13.2631579 L7.44210526,13.2631579 C7.2793266,13.2631579 7.14351586,13.3786213 7.11210659,13.5321145 L7.10526316,13.6 L7.10526316,14.6105263 C7.10526316,14.773305 7.22072657,14.9091157 7.37421983,14.940525 L7.44210526,14.9473684 L16.0315789,14.9473684 C16.1943576,14.9473684 16.3301683,14.831905 16.3615776,14.6784118 L16.3684211,14.6105263 L16.3684211,13.6 C16.3684211,13.4139672 16.2176117,13.2631579 16.0315789,13.2631579 Z M12.6631579,9.05263158 L7.44210526,9.05263158 C7.2793266,9.05263158 7.14351586,9.16809499 7.11210659,9.32158825 L7.10526316,9.38947368 L7.10526316,10.4 C7.10526316,10.5627787 7.22072657,10.6985894 7.37421983,10.7299987 L7.44210526,10.7368421 L12.6631579,10.7368421 C12.8259366,10.7368421 12.9617473,10.6213787 12.9931566,10.4678854 L13,10.4 L13,9.38947368 C13,9.20344093 12.8491907,9.05263158 12.6631579,9.05263158 Z" id="calendar" fill="#000000"></path>
    </g>
</svg>