<?xml version="1.0" encoding="UTF-8"?>
<svg width="24px" height="24px" viewBox="0 0 24 24" version="1.1" xmlns="http://www.w3.org/2000/svg" xmlns:xlink="http://www.w3.org/1999/xlink">
    <title>Icon / cancel</title>
    <g id="Icon-/-cancel" stroke="none" stroke-width="1" fill="none" fill-rule="evenodd" fill-opacity="0.86">
        <path d="M12,4 C16.42,4 20,7.58 20,12 C20,16.42 16.42,20 12,20 C7.58,20 4,16.42 4,12 C4,7.58 7.58,4 12,4 Z M14.6666667,8.44444444 L12,11.1111111 L9.33333333,8.44444444 C9.08787344,8.19898456 8.68990433,8.19898456 8.44444444,8.44444444 C8.19898456,8.68990433 8.19898456,9.08787344 8.44444444,9.33333333 L11.1111111,12 L8.44444444,14.6666667 C8.19898456,14.9121266 8.19898456,15.3100957 8.44444444,15.5555556 C8.68990433,15.8010154 9.08787344,15.8010154 9.33333333,15.5555556 L12,12.8888889 L14.6666667,15.5555556 C14.9121266,15.8010154 15.3100957,15.8010154 15.5555556,15.5555556 C15.8010154,15.3100957 15.8010154,14.9121266 15.5555556,14.6666667 L12.8888889,12 L15.5555556,9.33333333 C15.8010154,9.08787344 15.8010154,8.68990433 15.5555556,8.44444444 C15.3100957,8.19898456 14.9121266,8.19898456 14.6666667,8.44444444 Z" id="Mask" fill="#000000"></path>
    </g>
</svg>