<svg xmlns="http://www.w3.org/2000/svg" width="24" height="24" viewBox="0 0 24 24"><defs><clipPath id="a"><path d="M6,0 C9,0 8,4 10,4 C11.2119754,4 12.9747824,2.89833674 15.2884211,0.695010226 C15.4568718,0.534636535 15.7234376,0.541146534 15.8838351,0.709574565 C15.9397636,0.768303147 15.9771421,0.841478955 15.9923358,0.920014478 L16,1 L16,13 C16,14.1045695 15.1045695,15 14,15 L2,15 C0.8954305,15 1.3527075e-16,14.1045695 0,13 L0,5.56640625 C0.00025657025,5.18926867 0.107141032,4.81988893 0.307617188,4.50044751 C2.20507812,1.50014917 4.10253906,0 6,0 Z"/></clipPath><clipPath id="b"><path d="M6,0 C9,0 8,4 10,4 C11.2119754,4 12.9747824,2.89833674 15.2884211,0.695010226 C15.4568718,0.534636535 15.7234376,0.541146534 15.8838351,0.709574565 C15.9584064,0.787879341 16,0.891868073 16,1 L16,1.66015625 C15.9998364,1.88150283 15.9262391,2.09654024 15.7919922,2.27253628 C13.8613281,4.75751209 11.9306641,6 10,6 C7,6 8,2 6,2 C4.77384219,2 2.98388578,3.40949653 0.63013075,6.22848959 C0.503930021,6.37959936 0.27912778,6.39981812 0.128003419,6.27363486 C0.0468861033,6.2059049 1.29415484e-17,6.10567576 0,6 L0,5.56640625 C0.00025657025,5.18926867 0.107141032,4.81988893 0.307617188,4.50044751 C2.20507812,1.50014917 4.10253906,0 6,0 Z"/></clipPath></defs><g clip-path="url(#a)" transform="translate(4 5)"><polygon fill="rgba(0, 0, 0, 0.16)" points="0 0 16 0 16 15 0 15 0 0"/></g><g clip-path="url(#b)" transform="translate(4 5)"><polygon fill="rgba(0, 0, 0, 0.86)" points="0 0 16 0 16 6.356 0 6.356 0 0"/></g></svg>