<svg xmlns="http://www.w3.org/2000/svg" width="24" height="24" viewBox="0 0 24 24"><defs><clipPath id="a"><path d="M16,0 L16,13 C16,14.1045695 15.1045695,15 14,15 L2,15 C0.8954305,15 1.3527075e-16,14.1045695 0,13 L0,5 C2,2.33333333 4,1 6,1 L6.062,1.002 L6.29018519,1.00977778 C9.00222222,1.19666667 9.06666667,4 11,4 C12.3333333,4 14,2.66666667 16,0 Z"/></clipPath><clipPath id="b"><path d="M16,0 L16,5 C14.6666667,7 13,8 11,8 C8,8 8,5 6,5 C4.66666667,5 2.66666667,6.66666667 0,10 L0,5 C2,2.33333333 4,1 6,1 C9,1 9,4 11,4 C12.3333333,4 14,2.66666667 16,0 Z"/></clipPath></defs><g clip-path="url(#a)" transform="translate(4 5)"><polygon fill="rgba(0, 0, 0, 0.16)" points="0 0 16 0 16 15 0 15 0 0"/></g><g clip-path="url(#b)" transform="translate(4 5)"><polygon fill="rgba(0, 0, 0, 0.86)" points="0 0 16 0 16 10 0 10 0 0"/></g></svg>