<svg xmlns="http://www.w3.org/2000/svg" width="24" height="24" viewBox="0 0 24 24"><defs><clipPath id="a"><path d="M15,0 C15.5522847,-1.01453063e-16 16,0.44771525 16,1 L16,3 C16,3.55228475 15.5522847,4 15,4 L1,4 C0.44771525,4 6.76353751e-17,3.55228475 0,3 L0,1 C-6.76353751e-17,0.44771525 0.44771525,1.01453063e-16 1,0 L15,0 Z"/></clipPath><clipPath id="b"><path d="M6,0 C6.55228475,-1.01453063e-16 7,0.44771525 7,1 L7,3 C7,3.55228475 6.55228475,4 6,4 L1,4 C0.44771525,4 6.76353751e-17,3.55228475 0,3 L0,1 C-6.76353751e-17,0.44771525 0.44771525,1.01453063e-16 1,0 L6,0 Z"/></clipPath><clipPath id="c"><path d="M10,0 C10.5522847,-1.01453063e-16 11,0.44771525 11,1 L11,3 C11,3.55228475 10.5522847,4 10,4 L1,4 C0.44771525,4 6.76353751e-17,3.55228475 0,3 L0,1 C-6.76353751e-17,0.44771525 0.44771525,1.01453063e-16 1,0 L10,0 Z"/></clipPath></defs><g clip-path="url(#a)" transform="translate(4 10)"><polygon fill="rgba(0, 0, 0, 0.86)" points="0 0 16 0 16 4 0 4 0 0"/></g><g clip-path="url(#b)" transform="translate(4 16)"><polygon fill="rgba(0, 0, 0, 0.16)" points="0 0 7 0 7 4 0 4 0 0"/></g><g clip-path="url(#c)" transform="translate(4 4)"><polygon fill="rgba(0, 0, 0, 0.16)" points="0 0 11 0 11 4 0 4 0 0"/></g></svg>