<svg xmlns="http://www.w3.org/2000/svg" width="24" height="24" viewBox="0 0 24 24"><defs><clipPath id="a"><path d="M9,0 L9,9 L18,9 C18,11.3901644 17.0682727,13.5627123 15.5482081,15.1742535 C13.9071612,16.9140577 11.5803983,18 9,18 C4.02943725,18 0,13.9705627 0,9 C0,6.48603034 1.03074999,4.21280524 2.69268763,2.57988704 C4.31669471,0.984237092 6.54340691,0 9,0 Z"/></clipPath><clipPath id="b"><path d="M0,0 C2.50649136,0 4.77366832,1.02462678 6.40552367,2.67787312 C8.00976141,4.30313985 9,6.53592862 9,9 L0,9 Z"/></clipPath></defs><g clip-path="url(#a)" transform="translate(3 3)"><polygon fill="rgba(0, 0, 0, 0.16)" points="0 0 18 0 18 18 0 18 0 0"/></g><g clip-path="url(#b)" transform="translate(13 2)"><polygon fill="rgba(0, 0, 0, 0.86)" points="0 0 9 0 9 9 0 9 0 0"/></g></svg>