<svg xmlns="http://www.w3.org/2000/svg" width="24" height="24" viewBox="0 0 24 24"><defs><clipPath id="a"><path d="M14,0 C15.0543618,-1.9368312e-16 15.9181651,0.815877791 15.9945143,1.85073766 L16,2 L16,14 C16,15.1045695 15.1045695,16 14,16 L2,16 C0.8954305,16 1.3527075e-16,15.1045695 0,14 L0,2 C-1.3527075e-16,0.8954305 0.8954305,2.02906125e-16 2,0 L14,0 Z"/></clipPath><clipPath id="b"><path d="M14,0 C15.1045695,-2.02906125e-16 16,0.8954305 16,2 L16,3 C14.6666667,5.66666667 13,7 11,7 C8,7 8,5 6,5 C4.66666667,5 2.66666667,7 0,11 L0,2 C-1.3527075e-16,0.8954305 0.8954305,2.02906125e-16 2,0 L14,0 Z"/></clipPath></defs><g clip-path="url(#a)" transform="translate(4 4)"><polygon fill="rgba(0, 0, 0, 0.16)" points="0 0 16 0 16 16 0 16 0 0"/></g><g clip-path="url(#b)" transform="translate(4 4)"><polygon fill="rgba(0, 0, 0, 0.86)" points="0 0 16 0 16 11 0 11 0 0"/></g></svg>