<svg xmlns="http://www.w3.org/2000/svg" width="24" height="24" viewBox="0 0 24 24"><defs><clipPath id="a"><path d="M3.7975,6 C2.7275,7.86 2.7275,10.14 3.7975,12 C4.8675,13.86 6.8575,15 8.9975,15 C11.1375,15 13.1275,13.86 14.1975,12 C15.2675,10.14 15.2675,7.86 14.1975,6 C13.1275,4.14 11.1375,3 8.9975,3 C6.8575,3 4.8675,4.14 3.7975,6 Z M16.7875,4.5 C18.3975,7.28 18.3975,10.72 16.7875,13.5 C15.1775,16.28 12.2175,18 8.9975,18 C5.7775,18 2.8175,16.28 1.2075,13.5 C-0.4025,10.72 -0.4025,7.28 1.2075,4.5 C2.8175,1.72 5.7775,0 8.9975,0 C12.2175,0 15.1775,1.72 16.7875,4.5 Z"/></clipPath><clipPath id="b"><path d="M2.5918796,0 C3.69125502,1.71395695 5.59835546,2.75390534 7.64229123,2.75390534 C9.59733352,2.75390534 11.427184,1.80244735 12.5447348,0.219771993 L15.1005664,1.7838154 C13.4353198,4.2508179 10.652411,5.75390534 7.64229123,5.75390534 C4.51837876,5.75390534 1.63918059,4.13502625 0,1.49992878 L2.5918796,0 Z"/></clipPath><clipPath id="c"><path d="M8.46498013,0 L8.50108629,3.00478412 C6.55341002,3.16603033 4.78424993,4.26899426 3.7975,5.98427919 C2.77415658,7.76317523 2.72953443,9.92624224 3.66363355,11.7386413 L1.05306619,13.2063804 C-0.400739549,10.4774977 -0.349261612,7.17235204 1.2075,4.48427919 C2.72831692,1.85827234 5.4537145,0.178084377 8.46498013,0 Z"/></clipPath><clipPath id="d"><path d="M0,0 C3.22,0 6.18,1.72 7.79,4.5 C9.4,7.28 9.4,10.72 7.79,13.5 L5.2,12 C6.27,10.14 6.27,7.86 5.2,6 C4.13,4.14 2.14,3 0,3 L0,0 Z"/></clipPath></defs><g clip-path="url(#a)" transform="translate(3 3)"><polygon fill="rgba(68, 89, 99, 0.002)" points="0 0 17.995 0 17.995 18 0 18 0 0"/></g><g clip-path="url(#b)" transform="translate(4.355 15.246)"><polygon fill="rgba(0, 0, 0, 0.16)" points="0 0 15.101 0 15.101 5.754 0 5.754 0 0"/></g><g clip-path="url(#c)" transform="translate(3 3.016)"><polygon fill="rgba(0, 0, 0, 0.16)" points="0 0 8.501 0 8.501 13.206 0 13.206 0 0"/></g><g clip-path="url(#d)" transform="translate(11.998 3)"><polygon fill="rgba(0, 0, 0, 0.86)" points="0 0 8.998 0 8.998 13.5 0 13.5 0 0"/></g></svg>
