<svg xmlns="http://www.w3.org/2000/svg" width="24" height="24" viewBox="0 0 24 24"><defs><clipPath id="a"><path d="M3,0 C3.55228475,-1.01453063e-16 4,0.44771525 4,1 L4,10 C4,10.5522847 3.55228475,11 3,11 L1,11 C0.44771525,11 6.76353751e-17,10.5522847 0,10 L0,1 C-6.76353751e-17,0.44771525 0.44771525,1.01453063e-16 1,0 L3,0 Z"/></clipPath><clipPath id="b"><path d="M3,0 C3.55228475,-1.01453063e-16 4,0.44771525 4,1 L4,6 C4,6.55228475 3.55228475,7 3,7 L1,7 C0.44771525,7 6.76353751e-17,6.55228475 0,6 L0,1 C-6.76353751e-17,0.44771525 0.44771525,1.01453063e-16 1,0 L3,0 Z"/></clipPath><clipPath id="c"><path d="M3,0 C3.55228475,-1.01453063e-16 4,0.44771525 4,1 L4,15 C4,15.5522847 3.55228475,16 3,16 L1,16 C0.44771525,16 6.76353751e-17,15.5522847 0,15 L0,1 C-6.76353751e-17,0.44771525 0.44771525,1.01453063e-16 1,0 L3,0 Z"/></clipPath></defs><g clip-path="url(#a)" transform="translate(4 9)"><polygon fill="rgba(0, 0, 0, 0.16)" points="0 0 4 0 4 11 0 11 0 0"/></g><g clip-path="url(#b)" transform="translate(16 13)"><polygon fill="rgba(0, 0, 0, 0.16)" points="0 0 4 0 4 7 0 7 0 0"/></g><g clip-path="url(#c)" transform="translate(10 4)"><polygon fill="rgba(0, 0, 0, 0.86)" points="0 0 4 0 4 16 0 16 0 0"/></g></svg>