<svg xmlns="http://www.w3.org/2000/svg" width="24" height="24" viewBox="0 0 24 24"><defs><clipPath id="a"><path d="M3.7975,6 C2.7275,7.86 2.7275,10.14 3.7975,12 C4.8675,13.86 6.8575,15 8.9975,15 C11.1375,15 13.1275,13.86 14.1975,12 C15.2675,10.14 15.2675,7.86 14.1975,6 C13.1275,4.14 11.1375,3 8.9975,3 C6.8575,3 4.8675,4.14 3.7975,6 Z M16.7875,4.5 C18.3975,7.28 18.3975,10.72 16.7875,13.5 C15.1775,16.28 12.2175,18 8.9975,18 C5.7775,18 2.8175,16.28 1.2075,13.5 C-0.4025,10.72 -0.4025,7.28 1.2075,4.5 C2.8175,1.72 5.7775,0 8.9975,0 C12.2175,0 15.1775,1.72 16.7875,4.5 Z"/></clipPath><clipPath id="b"><path d="M12.99,0 L15.58,1.5 C13.97,4.28 11.01,6 7.79,6 C4.57,6 1.61,4.28 0,1.5 L2.59,0 C3.66,1.86 5.65,3 7.79,3 C9.93,3 11.92,1.86 12.99,0 Z"/></clipPath><clipPath id="c"><path d="M8.9975,0 L8.9975,3 C6.8575,3 4.8675,4.14 3.7975,6 C2.7275,7.86 2.7275,10.14 3.7975,12 L1.2075,13.5 C-0.4025,10.72 -0.4025,7.28 1.2075,4.5 C2.8175,1.72 5.7775,0 8.9975,0 Z"/></clipPath><clipPath id="d"><path d="M0,0 C3.22,0 6.18,1.72 7.79,4.5 C9.4,7.28 9.4,10.72 7.79,13.5 L5.2,12 C6.27,10.14 6.27,7.86 5.2,6 C4.13,4.14 2.14,3 0,3 L0,0 Z"/></clipPath><clipPath id="e"><path d="M10.4975,-1.5 L10.4975,15.1832616 L-1.5,15.1832616 L-1.5,-1.5 L10.4975,-1.5 Z M0,0 L0,3 C2.14,3 4.13,4.14 5.2,6 C6.27,7.86 6.27,10.14 5.2,12 L7.79,13.5 C9.4,10.72 9.4,7.28 7.79,4.5 C6.18,1.72 3.22,0 0,0 Z"/></clipPath></defs><g transform="translate(3 3)"><g clip-path="url(#a)"><polygon fill="rgba(68, 89, 99, 0.002)" points="0 0 17.995 0 17.995 18 0 18 0 0"/></g><g transform="translate(1.208 12)"><g clip-path="url(#b)"><polygon fill="rgba(0, 0, 0, 0.16)" points="0 0 15.58 0 15.58 6 0 6 0 0"/></g><g clip-path="url(#b)"><path fill="none" stroke="#FFF" stroke-miterlimit="5" stroke-width=".5" d="M15.58,1.5 C13.97,4.28 11.01,6 7.79,6 C4.57,6 1.61,4.28 0,1.5 L2.59,0 C3.66,1.86 5.65,3 7.79,3 C9.93,3 11.92,1.86 12.99,0 L15.58,1.5 Z"/></g></g><g clip-path="url(#c)"><polygon fill="rgba(0, 0, 0, 0.16)" points="0 0 8.998 0 8.998 13.5 0 13.5 0 0"/></g><g clip-path="url(#c)"><path fill="none" stroke="#FFF" stroke-miterlimit="5" stroke-width=".5" d="M1.2075,13.5 C-0.4025,10.72 -0.4025,7.28 1.2075,4.5 C2.8175,1.72 5.7775,0 8.9975,0 L8.9975,3 C6.8575,3 4.8675,4.14 3.7975,6 C2.7275,7.86 2.7275,10.14 3.7975,12 L1.2075,13.5 Z"/></g><g transform="translate(8.998)"><g clip-path="url(#d)"><polygon fill="rgba(0, 0, 0, 0.86)" points="0 0 8.998 0 8.998 13.5 0 13.5 0 0"/></g><g clip-path="url(#e)"><path fill="none" stroke="#FFF" stroke-miterlimit="5" d="M0,0 C3.22,0 6.18,1.72 7.79,4.5 C9.4,7.28 9.4,10.72 7.79,13.5 L5.2,12 C6.27,10.14 6.27,7.86 5.2,6 C4.13,4.14 2.14,3 0,3 L0,0 Z"/></g></g></g></svg>