<svg xmlns="http://www.w3.org/2000/svg" width="24" height="24" viewBox="0 0 24 24"><defs><clipPath id="a"><path d="M3.56851312,0 L3.56851312,11.392 L1.78425656,11.392 L1.78425656,1.728 L0,2.928 L0,1.2 L1.78425656,0 L3.56851312,0 Z"/></clipPath><clipPath id="b"><path d="M2.67638484,0 C3.14285714,0 3.54227405,0.0773333333 3.87463557,0.232 C4.20699708,0.386666667 4.48396501,0.597333333 4.70553936,0.864 C4.9154519,1.13066667 5.06997085,1.43466667 5.16909621,1.776 C5.26822157,2.11733333 5.31778426,2.48 5.31778426,2.864 C5.31778426,3.14133333 5.31195335,3.37333333 5.30029155,3.56 C5.28862974,3.74666667 5.26530612,3.92533333 5.2303207,4.096 C5.19533528,4.26666667 5.13702624,4.43733333 5.05539359,4.608 C4.97376093,4.77866667 4.86297376,4.98666667 4.72303207,5.232 L2.09912536,9.856 L5.31778426,9.856 L5.31778426,11.488 L0,11.488 L0,9.952 L3.21865889,4.4 C3.3819242,4.12266667 3.47521866,3.88 3.49854227,3.672 C3.52186589,3.464 3.5335277,3.20533333 3.5335277,2.896 C3.5335277,2.75733333 3.53061224,2.61066667 3.52478134,2.456 C3.51895044,2.30133333 3.48688047,2.16533333 3.42857143,2.048 C3.37026239,1.93066667 3.28279883,1.832 3.16618076,1.752 C3.04956268,1.672 2.88046647,1.632 2.65889213,1.632 C2.39067055,1.632 2.17784257,1.70133333 2.02040816,1.84 C1.86297376,1.97866667 1.78425656,2.18133333 1.78425656,2.448 L1.78425656,3.376 L0,3.376 L0,2.48 C0,2.13866667 0.0699708455,1.81866667 0.209912536,1.52 C0.349854227,1.22133333 0.542274052,0.96 0.787172012,0.736 C1.02040816,0.512 1.30029155,0.333333333 1.62682216,0.2 C1.95335277,0.0666666667 2.303207,0 2.67638484,0 Z"/></clipPath><clipPath id="c"><path d="M2.69387755,0 C3.18367347,0 3.58892128,0.088 3.90962099,0.264 C4.2303207,0.44 4.47230321,0.618666667 4.63556851,0.8 C4.75218659,0.928 4.85422741,1.056 4.94169096,1.184 C5.02915452,1.312 5.10204082,1.46666667 5.16034985,1.648 C5.26530612,2 5.31778426,2.52266667 5.31778426,3.216 C5.31778426,3.61066667 5.3090379,3.93066667 5.29154519,4.176 C5.27405248,4.42133333 5.2303207,4.624 5.16034985,4.784 C5.0787172,4.95466667 4.96501458,5.09866667 4.81924198,5.216 C4.67346939,5.33333333 4.47230321,5.46133333 4.21574344,5.6 C4.49562682,5.76 4.70845481,5.90933333 4.85422741,6.048 C5,6.18666667 5.10787172,6.34666667 5.17784257,6.528 C5.24781341,6.72 5.28862974,6.94666667 5.30029155,7.208 C5.31195335,7.46933333 5.31778426,7.80266667 5.31778426,8.208 C5.31778426,8.58133333 5.3090379,8.89066667 5.29154519,9.136 C5.27405248,9.38133333 5.24781341,9.584 5.21282799,9.744 C5.17784257,9.91466667 5.13119534,10.0586667 5.0728863,10.176 C5.01457726,10.2933333 4.93877551,10.416 4.84548105,10.544 C4.62390671,10.8426667 4.34110787,11.0906667 3.99708455,11.288 C3.65306122,11.4853333 3.20116618,11.584 2.64139942,11.584 C2.36151603,11.584 2.06413994,11.5413333 1.74927114,11.456 C1.43440233,11.3706667 1.14868805,11.232 0.89212828,11.04 C0.635568513,10.848 0.422740525,10.5973333 0.253644315,10.288 C0.084548105,9.97866667 0,9.6 0,9.152 L0,8.224 L1.78425656,8.224 L1.78425656,9.072 C1.78425656,9.328 1.86297376,9.53866667 2.02040816,9.704 C2.17784257,9.86933333 2.39067055,9.952 2.65889213,9.952 C2.9271137,9.952 3.13994169,9.86933333 3.29737609,9.704 C3.4548105,9.53866667 3.5335277,9.31733333 3.5335277,9.04 L3.5335277,7.408 C3.5335277,6.96 3.44023324,6.66666667 3.25364431,6.528 C3.14868805,6.44266667 3.0058309,6.38933333 2.82507289,6.368 C2.64431487,6.34666667 2.40816327,6.336 2.11661808,6.336 L2.11661808,4.896 C2.65306122,4.896 3.02332362,4.83733333 3.22740525,4.72 C3.43148688,4.60266667 3.5335277,4.33066667 3.5335277,3.904 L3.5335277,2.432 C3.5335277,2.19733333 3.4548105,2.00533333 3.29737609,1.856 C3.13994169,1.70666667 2.9271137,1.632 2.65889213,1.632 C2.34402332,1.632 2.11953353,1.72266667 1.98542274,1.904 C1.85131195,2.08533333 1.78425656,2.26133333 1.78425656,2.432 L1.78425656,3.36 L0,3.36 L0,2.416 C0,2.08533333 0.0699708455,1.77066667 0.209912536,1.472 C0.349854227,1.17333333 0.542274052,0.917333333 0.787172012,0.704 C1.03206997,0.490666667 1.31778426,0.32 1.64431487,0.192 C1.97084548,0.064 2.32069971,0 2.69387755,0 Z"/></clipPath><clipPath id="d"><path d="M17,0 C17.5522847,-1.01453063e-16 18,0.44771525 18,1 C18,1.55228475 17.5522847,2 17,2 L1,2 C0.44771525,2 6.76353751e-17,1.55228475 0,1 C-6.76353751e-17,0.44771525 0.44771525,1.01453063e-16 1,0 L17,0 Z"/></clipPath></defs><g clip-path="url(#a)" transform="translate(3 4.096)"><polygon fill="rgba(0, 0, 0, 0.86)" points="0 0 3.569 0 3.569 11.392 0 11.392 0 0"/></g><g clip-path="url(#b)" transform="translate(9.175 4)"><polygon fill="rgba(0, 0, 0, 0.86)" points="0 0 5.318 0 5.318 11.488 0 11.488 0 0"/></g><g clip-path="url(#c)" transform="translate(15.682 4)"><polygon fill="rgba(0, 0, 0, 0.86)" points="0 0 5.318 0 5.318 11.584 0 11.584 0 0"/></g><g clip-path="url(#d)" transform="translate(3 18)"><polygon fill="rgba(0, 0, 0, 0.16)" points="0 0 18 0 18 2 0 2 0 0"/></g></svg>