<svg xmlns="http://www.w3.org/2000/svg" width="24" height="24" viewBox="0 0 24 24"><defs><clipPath id="a"><path d="M12,0 C12.4389155,-8.06274782e-17 12.7947269,0.355811354 12.7947269,0.794726902 C12.7947269,0.857709164 12.78724,0.920468142 12.7724037,0.981678029 C11.4785773,6.32722601 9.88777611,9 8,9 C5,9 6,5 5,5 C4.38040252,5 3.47287926,7.01548045 2.27743022,11.0464413 C2.10967073,11.6120405 1.58995392,12 1,12 C0.561084452,12 0.205273098,11.6441886 0.205273098,11.2052731 C0.205273098,11.1422908 0.21276004,11.0795319 0.227596324,11.018322 C1.52142266,5.67277399 3.11222389,3 5,3 C8,3 6,7 8,7 C9.23694026,7 10.1870015,4.99184716 10.8501839,0.975541485 C10.9430884,0.412802415 11.4296435,1.04772785e-16 12,0 Z"/></clipPath><clipPath id="b"><path d="M1,0 C1.55228475,-1.01453063e-16 2,0.44771525 2,1 L2,13 C2,13.5522847 2.44771525,14 3,14 L15,14 C15.5522847,14 16,14.4477153 16,15 C16,15.5522847 15.5522847,16 15,16 L1,16 C0.44771525,16 6.76353751e-17,15.5522847 0,15 L0,1 C-6.76353751e-17,0.44771525 0.44771525,1.01453063e-16 1,0 Z"/></clipPath></defs><g clip-path="url(#a)" transform="translate(7 5)"><polygon fill="rgba(0, 0, 0, 0.86)" points=".205 0 12.795 0 12.795 12 .205 12 .205 0"/></g><g clip-path="url(#b)" transform="translate(4 4)"><polygon fill="rgba(0, 0, 0, 0.16)" points="0 0 16 0 16 16 0 16 0 0"/></g></svg>