<svg xmlns="http://www.w3.org/2000/svg" width="24" height="24" viewBox="0 0 24 24"><defs><clipPath id="a"><path d="M11,0 C11.5522847,-1.01453063e-16 12,0.44771525 12,1 C12,1.55228475 11.5522847,2 11,2 L1,2 C0.44771525,2 6.76353751e-17,1.55228475 0,1 C-6.76353751e-17,0.44771525 0.44771525,1.01453063e-16 1,0 L11,0 Z"/></clipPath><clipPath id="b"><path d="M7,0 C7.55228475,-1.01453063e-16 8,0.44771525 8,1 C8,1.55228475 7.55228475,2 7,2 L1,2 C0.44771525,2 6.76353751e-17,1.55228475 0,1 C-6.76353751e-17,0.44771525 0.44771525,1.01453063e-16 1,0 L7,0 Z"/></clipPath><clipPath id="c"><path d="M3,0 C3.55228475,-1.01453063e-16 4,0.44771525 4,1 C4,1.55228475 3.55228475,2 3,2 L1,2 C0.44771525,2 6.76353751e-17,1.55228475 0,1 C-6.76353751e-17,0.44771525 0.44771525,1.01453063e-16 1,0 L3,0 Z"/></clipPath></defs><g clip-path="url(#a)" transform="translate(6 7)"><polygon fill="rgba(0, 0, 0, 0.86)" points="0 0 12 0 12 2 0 2 0 0"/></g><g clip-path="url(#b)" transform="translate(8 11)"><polygon fill="rgba(0, 0, 0, 0.16)" points="0 0 8 0 8 2 0 2 0 0"/></g><g clip-path="url(#c)" transform="translate(10 15)"><polygon fill="rgba(0, 0, 0, 0.16)" points="0 0 4 0 4 2 0 2 0 0"/></g></svg>