<svg xmlns="http://www.w3.org/2000/svg" width="24" height="24" viewBox="0 0 24 24"><defs><clipPath id="a"><path d="M3,0 C3.55228475,-1.01453063e-16 4,0.44771525 4,1 L4,10 C4,10.5522847 3.55228475,11 3,11 L1,11 C0.44771525,11 6.76353751e-17,10.5522847 0,10 L0,1 C-6.76353751e-17,0.44771525 0.44771525,1.01453063e-16 1,0 L3,0 Z"/></clipPath><clipPath id="b"><path d="M3,0 C3.55228475,-1.01453063e-16 4,0.44771525 4,1 L4,3 C4,3.55228475 3.55228475,4 3,4 L1,4 C0.44771525,4 6.76353751e-17,3.55228475 0,3 L0,1 C-6.76353751e-17,0.44771525 0.44771525,1.01453063e-16 1,0 L3,0 Z"/></clipPath><clipPath id="c"><path d="M3,0 C3.55228475,-1.01453063e-16 4,0.44771525 4,1 L4,4 C4,4.55228475 3.55228475,5 3,5 L1,5 C0.44771525,5 6.76353751e-17,4.55228475 0,4 L0,1 C-6.76353751e-17,0.44771525 0.44771525,1.01453063e-16 1,0 L3,0 Z"/></clipPath><clipPath id="d"><path d="M3,0 C3.55228475,-1.01453063e-16 4,0.44771525 4,1 L4,7 C4,7.55228475 3.55228475,8 3,8 L1,8 C0.44771525,8 6.76353751e-17,7.55228475 0,7 L0,1 C-6.76353751e-17,0.44771525 0.44771525,1.01453063e-16 1,0 L3,0 Z"/></clipPath></defs><g clip-path="url(#a)" transform="translate(4 9)"><polygon fill="rgba(0, 0, 0, 0.16)" points="0 0 4 0 4 11 0 11 0 0"/></g><g clip-path="url(#b)" transform="translate(4 4)"><polygon fill="rgba(0, 0, 0, 0.16)" points="0 0 4 0 4 4 0 4 0 0"/></g><g clip-path="url(#b)" transform="translate(10 7)"><polygon fill="rgba(0, 0, 0, 0.86)" points="0 0 4 0 4 4 0 4 0 0"/></g><g clip-path="url(#b)" transform="translate(16 10)"><polygon fill="rgba(0, 0, 0, 0.16)" points="0 0 4 0 4 4 0 4 0 0"/></g><g clip-path="url(#c)" transform="translate(16 15)"><polygon fill="rgba(0, 0, 0, 0.16)" points="0 0 4 0 4 5 0 5 0 0"/></g><g clip-path="url(#d)" transform="translate(10 12)"><polygon fill="rgba(0, 0, 0, 0.86)" points="0 0 4 0 4 8 0 8 0 0"/></g></svg>