<svg xmlns="http://www.w3.org/2000/svg" width="24" height="24" viewBox="0 0 24 24"><defs><clipPath id="a"><path d="M7,0 C7.55228475,-1.01453063e-16 8,0.44771525 8,1 L8,3 C8,3.55228475 7.55228475,4 7,4 L1,4 C0.44771525,4 6.76353751e-17,3.55228475 0,3 L0,1 C-6.76353751e-17,0.44771525 0.44771525,1.01453063e-16 1,0 L7,0 Z"/></clipPath><clipPath id="b"><path d="M4,0 C4.55228475,-1.01453063e-16 5,0.44771525 5,1 L5,3 C5,3.55228475 4.55228475,4 4,4 L1,4 C0.44771525,4 6.76353751e-17,3.55228475 0,3 L0,1 C-6.76353751e-17,0.44771525 0.44771525,1.01453063e-16 1,0 L4,0 Z"/></clipPath><clipPath id="c"><path d="M3,0 C3.55228475,-1.01453063e-16 4,0.44771525 4,1 L4,3 C4,3.55228475 3.55228475,4 3,4 L1,4 C0.44771525,4 6.76353751e-17,3.55228475 0,3 L0,1 C-6.76353751e-17,0.44771525 0.44771525,1.01453063e-16 1,0 L3,0 Z"/></clipPath><clipPath id="d"><path d="M10,0 C10.5522847,-1.01453063e-16 11,0.44771525 11,1 L11,3 C11,3.55228475 10.5522847,4 10,4 L1,4 C0.44771525,4 6.76353751e-17,3.55228475 0,3 L0,1 C-6.76353751e-17,0.44771525 0.44771525,1.01453063e-16 1,0 L10,0 Z"/></clipPath></defs><g clip-path="url(#a)" transform="translate(4 10)"><polygon fill="rgba(0, 0, 0, 0.86)" points="0 0 8 0 8 4 0 4 0 0"/></g><g clip-path="url(#b)" transform="translate(4 16)"><polygon fill="rgba(0, 0, 0, 0.16)" points="0 0 5 0 5 4 0 4 0 0"/></g><g clip-path="url(#c)" transform="translate(10 16)"><polygon fill="rgba(0, 0, 0, 0.16)" points="0 0 4 0 4 4 0 4 0 0"/></g><g clip-path="url(#d)" transform="translate(4 4)"><polygon fill="rgba(0, 0, 0, 0.16)" points="0 0 11 0 11 4 0 4 0 0"/></g><g clip-path="url(#c)" transform="translate(16 4)"><polygon fill="rgba(0, 0, 0, 0.16)" points="0 0 4 0 4 4 0 4 0 0"/></g><g clip-path="url(#c)" transform="translate(13 10)"><polygon fill="rgba(0, 0, 0, 0.86)" points="0 0 4 0 4 4 0 4 0 0"/></g></svg>