<svg xmlns="http://www.w3.org/2000/svg" width="24" height="24" viewBox="0 0 24 24"><defs><clipPath id="a"><path d="M3.79001124,0 C4.25718944,-8.58192437e-17 4.66179585,0.324217893 4.76361561,0.780165489 L7.37095565,12.4558014 C7.46347922,12.8701208 7.20261217,13.2809982 6.78829279,13.3735218 C6.73329602,13.3858033 6.67711546,13.392 6.62076404,13.392 L6.48446926,13.392 C6.00636914,13.392 5.59514889,13.0535807 5.50315551,12.5844145 L5.09723596,10.5142247 L2.48278652,10.5142247 L2.07686696,12.5844145 C1.98487358,13.0535807 1.57365334,13.392 1.09555321,13.392 L0.959258427,13.392 C0.534733795,13.392 0.190588584,13.0478548 0.190588584,12.6233302 C0.190588584,12.5669787 0.196785237,12.5107982 0.209066819,12.4558014 L2.81640686,0.780165489 C2.91822662,0.324217893 3.32283303,8.58192437e-17 3.79001124,0 Z M3.79941573,3.8558427 L3.76179775,3.8558427 L2.82134831,8.7085618 L4.73986517,8.7085618 L3.79941573,3.8558427 Z"/></clipPath><clipPath id="b"><path d="M1.69023926,0 C2.06080625,0 2.37654446,0.0567194382 2.63745388,0.170158315 C2.89836329,0.283597191 3.11200651,0.434849026 3.27838353,0.62391382 C3.44476055,0.812978614 3.56387137,1.03040313 3.63571599,1.27618736 C3.70756061,1.52197159 3.74348292,1.77720906 3.74348292,2.04189978 L3.74348292,2.33684085 C3.74348292,2.55615601 3.72646709,2.74143951 3.69243543,2.89269135 C3.65840376,3.04394318 3.60735627,3.17628854 3.53929294,3.28972742 C3.41072888,3.50147999 3.2141015,3.68298219 2.94941079,3.83423402 C3.22166409,3.96279808 3.42207277,4.15186288 3.55063683,4.4014284 C3.67920089,4.65099393 3.74348292,4.99131056 3.74348292,5.42237829 L3.74348292,5.8761338 C3.74348292,6.58701742 3.57143396,7.13152403 3.22733603,7.50965362 C2.88323811,7.88778321 2.33305956,8.076848 1.57680038,8.076848 L1,8.076848 C0.44771525,8.076848 6.76353751e-17,7.62913275 0,7.076848 L0,1 C-6.76353751e-17,0.44771525 0.44771525,1.01453063e-16 1,0 L1.69023926,0 Z M1.66755148,4.33336508 L1.15707654,4.33336508 L1.15707654,6.91977146 L1.6562076,6.91977146 C1.89064794,6.91977146 2.07404079,6.8857398 2.20638615,6.81767647 C2.3387315,6.74961315 2.43893584,6.65508075 2.50699917,6.53407928 C2.57506249,6.41307781 2.61665675,6.26938857 2.63178193,6.10301155 C2.64690712,5.93663453 2.65446971,5.75513233 2.65446971,5.55850494 C2.65446971,5.35431497 2.64312582,5.17659406 2.62043804,5.02534222 C2.59775027,4.87409039 2.55237472,4.74552633 2.48431139,4.63965004 C2.40868548,4.53377376 2.30659049,4.45625719 2.17802643,4.40710035 C2.04946237,4.3579435 1.87930405,4.33336508 1.66755148,4.33336508 Z M1.63351982,1.08901321 L1.15707654,1.08901321 L1.15707654,3.31241519 L1.67889537,3.31241519 C2.06458755,3.31241519 2.32360632,3.21599215 2.45595167,3.02314606 C2.58829703,2.83029997 2.65446971,2.54859342 2.65446971,2.17802643 C2.65446971,1.81502202 2.58073444,1.54276872 2.4332639,1.36126652 C2.28579336,1.17976431 2.019212,1.08901321 1.63351982,1.08901321 Z"/></clipPath><clipPath id="c"><path d="M2.19743646,0 C2.83283978,0 3.34910497,0.207388582 3.74623204,0.622165746 C3.94038306,0.825141805 4.0926151,1.06562431 4.20292818,1.34361326 C4.31324125,1.62160221 4.36839779,1.92386004 4.36839779,2.25038674 C4.36839779,2.54282304 4.13133133,2.7798895 3.83889503,2.7798895 L3.46824309,2.7798895 C3.24729122,2.7798895 3.06352601,2.6206745 3.02541709,2.41071413 L3.01816575,2.32981215 C3.01816575,2.06506077 2.94315285,1.83560958 2.79312707,1.64145856 C2.64310129,1.44730755 2.44012523,1.35023204 2.1841989,1.35023204 C1.84884715,1.35023204 1.62601473,1.45392634 1.51570166,1.66131492 C1.40538858,1.8687035 1.35023204,2.13124862 1.35023204,2.44895028 L1.35023204,7.26742541 C1.35023204,7.54100184 1.4098011,7.77045304 1.52893923,7.95577901 C1.64807735,8.14110497 1.86208471,8.23376796 2.17096133,8.23376796 C2.25921179,8.23376796 2.35408103,8.21832413 2.45556906,8.18743646 C2.55705709,8.1565488 2.65192634,8.10580479 2.7401768,8.03520442 C2.81960221,7.96460405 2.88579006,7.86752855 2.93874033,7.7439779 C2.99169061,7.62042726 3.01816575,7.46598895 3.01816575,7.28066298 C3.01816575,7.02478122 3.2255989,6.81734807 3.48148066,6.81734807 L3.78594475,6.81734807 C4.07545669,6.81734807 4.3156341,7.02857428 4.36077446,7.3053242 L4.36839779,7.3998011 C4.36839779,7.69102762 4.31324125,7.96681031 4.20292818,8.22714917 C4.0926151,8.48748803 3.94038306,8.71914549 3.74623204,8.92212155 C3.55208103,9.12509761 3.3248361,9.2861547 3.06449724,9.40529282 C2.80415838,9.52443094 2.52396317,9.584 2.2239116,9.584 C1.96798527,9.584 1.70764641,9.54869982 1.44289503,9.47809945 C1.17814365,9.40749908 0.939867403,9.28394843 0.728066298,9.10744751 C0.516265193,8.93094659 0.341970534,8.70370166 0.20518232,8.42571271 C0.0683941068,8.14772376 0,7.79251565 0,7.3600884 L0,2.17096133 C0,1.86208471 0.0529502762,1.57527072 0.158850829,1.31051934 C0.264751381,1.04576796 0.414777164,0.816316759 0.608928177,0.622165746 C0.80307919,0.428014733 1.03473665,0.275782689 1.30390055,0.165469613 C1.57306446,0.0551565378 1.87090976,0 2.19743646,0 Z"/></clipPath><clipPath id="d"><path d="M1.32218824,0 C1.83588609,0 2.22553759,0.140099416 2.49114274,0.420298247 C2.75674788,0.700497079 2.88955045,1.09744542 2.88955045,1.61114328 L2.88955045,4.52696237 C2.88955045,5.11070994 2.74799166,5.54122377 2.4648741,5.81850386 C2.18175653,6.09578395 1.7745926,6.234424 1.24338231,6.234424 L0,6.234424 L0,0 L1.32218824,0 Z M1.30467581,0.840596494 L0.893133775,0.840596494 L0.893133775,5.39382751 L1.30467581,5.39382751 C1.55568726,5.39382751 1.73373027,5.33107464 1.83880483,5.20556892 C1.94387939,5.08006319 1.99641667,4.88304839 1.99641667,4.61452451 L1.99641667,1.61114328 C1.99641667,1.3659693 1.94679813,1.17625134 1.84756104,1.0419894 C1.74832396,0.907727464 1.56736221,0.840596494 1.30467581,0.840596494 Z"/></clipPath></defs><g clip-path="url(#a)" transform="translate(3 4.608)"><polygon fill="rgba(0, 0, 0, 0.86)" points=".191 0 7.39 0 7.39 13.392 .191 13.392 .191 0"/></g><g clip-path="url(#b)" transform="translate(10.452 3)"><polygon fill="rgba(0, 0, 0, 0.16)" points="0 0 3.743 0 3.743 8.077 0 8.077 0 0"/></g><g clip-path="url(#c)" transform="translate(12.172 11.41)"><polygon fill="rgba(0, 0, 0, 0.86)" points="0 0 4.368 0 4.368 9.584 0 9.584 0 0"/></g><g clip-path="url(#d)" transform="translate(18.11 6.608)"><polygon fill="rgba(0, 0, 0, 0.16)" points="0 0 2.89 0 2.89 6.234 0 6.234 0 0"/></g></svg>