<?xml version="1.0" encoding="UTF-8"?>
<svg width="24px" height="24px" viewBox="0 0 24 24" version="1.1" xmlns="http://www.w3.org/2000/svg" xmlns:xlink="http://www.w3.org/1999/xlink">
    <title>Icon / clock_outline</title>
    <g id="Icon-/-clock_outline" stroke="none" stroke-width="1" fill="none" fill-rule="evenodd" fill-opacity="0.86">
        <path d="M12,22 C6.4771525,22 2,17.5228475 2,12 C2,6.4771525 6.4771525,2 12,2 C17.5228475,2 22,6.4771525 22,12 C22,17.5228475 17.5228475,22 12,22 Z M12,20 C7.581722,20 4,16.418278 4,12 C4,7.581722 7.581722,4 12,4 C16.418278,4 20,7.581722 20,12 C20,16.418278 16.418278,20 12,20 Z M12,5.87066162 C12.650907,5.87066162 13.1888416,6.35435399 13.2739772,6.9819121 L13.2857143,7.15637591 L13.2857143,11.4668571 L15.9091373,14.0908627 C16.3655943,14.5473197 16.4070903,15.2616003 16.0336256,15.7649343 L15.9091373,15.9091373 C15.4526803,16.3655943 14.7383997,16.4070903 14.2350657,16.0336256 L14.0908627,15.9091373 L11.0908627,12.9091373 C10.8979681,12.7162427 10.7726956,12.4683669 10.7303024,12.2023441 L10.7142857,12 L10.7142857,7.15637591 C10.7142857,6.44629552 11.2899196,5.87066162 12,5.87066162 Z" id="Oval" fill="#000000"></path>
    </g>
</svg>