<?xml version="1.0" encoding="UTF-8"?>
<svg width="24px" height="24px" viewBox="0 0 24 24" version="1.1" xmlns="http://www.w3.org/2000/svg" xmlns:xlink="http://www.w3.org/1999/xlink">
    <title>Icon / divide</title>
    <g id="Icon-/-divide" stroke="none" stroke-width="1" fill="none" fill-rule="evenodd" fill-opacity="0.86">
        <path d="M18,13 L6,13 C5.45,13 5,12.55 5,12 C5,11.45 5.45,11 6,11 L18,11 C18.55,11 19,11.45 19,12 C19,12.55 18.55,13 18,13 Z M12,8.25 C12.6903559,8.25 13.25,7.69035594 13.25,7 C13.25,6.30964406 12.6903559,5.75 12,5.75 C11.3096441,5.75 10.75,6.30964406 10.75,7 C10.75,7.69035594 11.3096441,8.25 12,8.25 Z M12,18.25 C12.6903559,18.25 13.25,17.6903559 13.25,17 C13.25,16.3096441 12.6903559,15.75 12,15.75 C11.3096441,15.75 10.75,16.3096441 10.75,17 C10.75,17.6903559 11.3096441,18.25 12,18.25 Z" id="形状结合" fill="#000000"></path>
    </g>
</svg>