<?xml version="1.0" encoding="UTF-8"?>
<svg width="24px" height="24px" viewBox="0 0 24 24" version="1.1" xmlns="http://www.w3.org/2000/svg" xmlns:xlink="http://www.w3.org/1999/xlink">
    <title>Icon / doc_ppt</title>
    <g id="Icon-/-doc_ppt" stroke="none" stroke-width="1" fill="none" fill-rule="evenodd">
        <path d="M5.07142857,2 L15.1357143,2 C15.3241209,2.00268361 15.5038354,2.0797041 15.6357143,2.21428571 L19.5071429,6.07142857 C19.6408475,6.20622774 19.7153834,6.38871215 19.7142977,6.57857143 L19.7142977,20.9285714 C19.7142977,21.5214286 19.2357143,22 18.6428571,22 L5.07142857,22 C4.47969491,22 4,21.5203051 4,20.9285714 L4,3.07142857 C4,2.47857143 4.47857143,2 5.07142857,2 Z" id="746bdb79015ef7584b590331fd970c7a-a" fill="#FF8800" fill-rule="nonzero"></path>
        <path d="M15.6428571,2.21428571 L19.5,6.07142857 C19.5627637,6.13301527 19.6136162,6.20566167 19.65,6.28571429 L16.5,6.28571429 C15.9082663,6.28571429 15.4285714,5.80601937 15.4285714,5.21428571 L15.4285714,2.06428571 C15.5,2.1 15.5714286,2.15 15.6428571,2.20714286 L15.6428571,2.21428571 Z" id="746bdb79015ef7584b590331fd970c7a-b" fill="#DE7802" fill-rule="nonzero"></path>
        <polygon id="Path" points="5.89285714 7.71428571 17.7857143 7.71428571 17.7857143 19.6071429 5.89285714 19.6071429"></polygon>
        <path d="M10.2357143,14.5571429 L10.2357143,18.1142857 C10.2357143,18.1857143 10.1714286,18.2571429 10.0928571,18.2571429 L9.28571429,18.2571429 C9.20681646,18.2571429 9.14285714,18.1931835 9.14285714,18.1142857 L9.14285714,9.74285714 C9.14285714,9.67142857 9.20714286,9.6 9.28571429,9.6 L12.4142857,9.6 C12.9857143,9.6 13.4642857,9.67142857 13.8428571,9.8 C14.2214286,9.92857143 14.5285714,10.1142857 14.75,10.35 C14.9785714,10.5785714 15.1357143,10.85 15.2285714,11.1571429 C15.3142857,11.45 15.3571429,11.7571429 15.3571429,12.0857143 C15.3571429,12.5714286 15.2571429,12.9857143 15.0428571,13.3071429 C14.8357143,13.6285714 14.5714286,13.8785714 14.2357143,14.0714286 C13.9142857,14.2571429 13.55,14.3785714 13.1357143,14.4571429 C12.7357143,14.5285714 12.3357143,14.5571429 11.9285714,14.5571429 L10.2428571,14.5571429 L10.2357143,14.5571429 Z M11.95,13.6 C12.3214286,13.6 12.65,13.5785714 12.95,13.5285714 C13.2357143,13.4928571 13.4642857,13.4071429 13.6642857,13.2928571 C13.85,13.1785714 13.9928571,13.0214286 14.0928571,12.8285714 C14.2,12.6285714 14.25,12.3642857 14.25,12.0285714 C14.25,11.5428571 14.0928571,11.1857143 13.7785714,10.9428571 C13.4571429,10.6928571 12.9214286,10.5642857 12.1857143,10.5642857 L10.2357143,10.5642857 L10.2357143,13.6 L11.95,13.6 L11.95,13.6 Z" id="Shape" fill="#FFFFFF" fill-rule="nonzero"></path>
    </g>
</svg>