<?xml version="1.0" encoding="UTF-8"?>
<svg width="24px" height="24px" viewBox="0 0 24 24" version="1.1" xmlns="http://www.w3.org/2000/svg" xmlns:xlink="http://www.w3.org/1999/xlink">
    <title>Icon / document_upload</title>
    <g id="Icon-/-document_upload" stroke="none" stroke-width="1" fill="none" fill-rule="evenodd" fill-opacity="0.86">
        <path d="M14,2 L6,2 C4.9,2 4.01,2.9 4.01,4 L4,20 C4,21.1 4.89,22 5.99,22 L18,22 C19.1,22 20,21.1 20,20 L20,8 L14,2 Z M18,20 L6,20 L6,4 L13,4 L13,9 L18,9 L18,20 Z M8,15.01 L9.41,16.42 L11,14.84 L11,19 L13,19 L13,14.84 L14.59,16.43 L16,15.01 L12.01,11 L8,15.01 Z" id="Shape" fill="#000000"></path>
    </g>
</svg>