<?xml version="1.0" encoding="UTF-8"?>
<svg width="24px" height="24px" viewBox="0 0 24 24" version="1.1" xmlns="http://www.w3.org/2000/svg" xmlns:xlink="http://www.w3.org/1999/xlink">
    <title>Icon / evaluate_outline</title>
    <g id="Icon-/-evaluate_outline" stroke="none" stroke-width="1" fill="none" fill-rule="evenodd" fill-opacity="0.86">
        <path d="M16,3 L5,3 C3.9,3 3,3.9 3,5 L3,19 C3,20.1 3.9,21 5,21 L19,21 C20.1,21 21,20.1 21,19 L21,8 L16,3 Z M15.1,5 L15.1,8.9 L19,8.9 L15.1,5 Z M15.1111111,5 L19,8.88888889 L19,19 L5,19 L5,5 L15.1111111,5 Z M17,15 L7,15 L7,17 L17,17 L17,15 Z M17,11 L7,11 L7,13 L17,13 L17,11 Z M12,7 L7,7 L7,9 L12,9 L12,7 Z" id="形状" fill="#000000"></path>
    </g>
</svg>