<?xml version="1.0" encoding="UTF-8"?>
<svg width="24px" height="24px" viewBox="0 0 24 24" version="1.1" xmlns="http://www.w3.org/2000/svg" xmlns:xlink="http://www.w3.org/1999/xlink">
    <title>Icon / expand</title>
    <g id="Icon-/-expand" stroke="none" stroke-width="1" fill="none" fill-rule="evenodd" fill-opacity="0.86">
        <path d="M11.2626407,18.1768542 L6.31289322,13.2271068 C5.92236893,12.8365825 5.92236893,12.2034175 6.31289322,11.8128932 C6.70341751,11.4223689 7.33658249,11.4223689 7.72710678,11.8128932 L11.994,16.08 L16.2626407,11.8128932 C16.653165,11.4223689 17.28633,11.4223689 17.6768542,11.8128932 C18.0673785,12.2034175 18.0673785,12.8365825 17.6768542,13.2271068 L12.7271068,18.1768542 C12.5468648,18.3570962 12.314936,18.4541496 12.0790314,18.4680144 L11.9107161,18.4680144 C11.6748114,18.4541496 11.4428827,18.3570962 11.2626407,18.1768542 Z M11.2626407,12.1768542 L6.31289322,7.22710678 C5.92236893,6.83658249 5.92236893,6.20341751 6.31289322,5.81289322 C6.70341751,5.42236893 7.33658249,5.42236893 7.72710678,5.81289322 L11.994,10.08 L16.2626407,5.81289322 C16.653165,5.42236893 17.28633,5.42236893 17.6768542,5.81289322 C18.0673785,6.20341751 18.0673785,6.83658249 17.6768542,7.22710678 L12.7271068,12.1768542 C12.5468648,12.3570962 12.314936,12.4541496 12.0790314,12.4680144 L11.9107161,12.4680144 C11.6748114,12.4541496 11.4428827,12.3570962 11.2626407,12.1768542 Z" id="Rectangle-2" fill="#000000"></path>
    </g>
</svg>