<?xml version="1.0" encoding="UTF-8"?>
<svg width="24px" height="24px" viewBox="0 0 24 24" version="1.1" xmlns="http://www.w3.org/2000/svg" xmlns:xlink="http://www.w3.org/1999/xlink">
    <title>Icon / folder_outline</title>
    <g id="Icon-/-folder_outline" stroke="none" stroke-width="1" fill="none" fill-rule="evenodd" fill-opacity="0.86">
        <path d="M11.0355909,3 L14.0424492,6 L20,6 C20.5522847,6 21,6.44771525 21,7 L21,20 C21,20.5522847 20.5522847,21 20,21 L4,21 C3.44771525,21 3,20.5522847 3,20 L3,4 C3,3.44771525 3.44771525,3 4,3 L11.0355909,3 Z M10.208,5 L5,5 L5,19 L19,19 L19,8 L13.2153594,8 L10.208,5 Z M16.76,14 C16.8925483,14 17,14.1074517 17,14.24 L17,15.76 C17,15.8925483 16.8925483,16 16.76,16 L7.23999999,16 C7.10745166,16 7,15.8925483 7,15.76 L7,14.24 C7,14.1074517 7.10745166,14 7.23999999,14 L16.76,14 Z M13.76,10 C13.8925483,10 14,10.1074517 14,10.24 L14,11.76 C14,11.8925483 13.8925483,12 13.76,12 L7.23999999,12 C7.10745166,12 7,11.8925483 7,11.76 L7,10.24 C7,10.1074517 7.10745166,10 7.23999999,10 L13.76,10 Z" id="形状结合" fill="#000000"></path>
    </g>
</svg>