<?xml version="1.0" encoding="UTF-8"?>
<svg width="24px" height="24px" viewBox="0 0 24 24" version="1.1" xmlns="http://www.w3.org/2000/svg" xmlns:xlink="http://www.w3.org/1999/xlink">
    <title>Icon / folder</title>
    <g id="Icon-/-folder" stroke="none" stroke-width="1" fill="none" fill-rule="evenodd" fill-opacity="0.86">
        <path d="M11.0355909,3 L14.0424492,6 L20,6 C20.5522847,6 21,6.44771525 21,7 L21,20 C21,20.5522847 20.5522847,21 20,21 L4,21 C3.44771525,21 3,20.5522847 3,20 L3,4 C3,3.44771525 3.44771525,3 4,3 L11.0355909,3 Z M17.76,15 L6.23999999,15 C6.10745166,15 6,15.1074517 6,15.24 L6,15.24 L6,16.76 C6,16.8925483 6.10745166,17 6.23999999,17 L6.23999999,17 L17.76,17 C17.8925483,17 18,16.8925483 18,16.76 L18,16.76 L18,15.24 C18,15.1074517 17.8925483,15 17.76,15 L17.76,15 Z M12.76,10 L6.23999999,10 C6.10745166,10 6,10.1074517 6,10.24 L6,10.24 L6,11.76 C6,11.8925483 6.10745166,12 6.23999999,12 L6.23999999,12 L12.76,12 C12.8925483,12 13,11.8925483 13,11.76 L13,11.76 L13,10.24 C13,10.1074517 12.8925483,10 12.76,10 L12.76,10 Z" id="形状结合" fill="#000000"></path>
    </g>
</svg>