<?xml version="1.0" encoding="UTF-8"?>
<svg width="24px" height="24px" viewBox="0 0 24 24" version="1.1" xmlns="http://www.w3.org/2000/svg" xmlns:xlink="http://www.w3.org/1999/xlink">
    <title>Icon / format_quote</title>
    <g id="Icon-/-format_quote" stroke="none" stroke-width="1" fill="none" fill-rule="evenodd" fill-opacity="0.86">
        <path d="M9,13.0841529 C9,16.5123195 6.51957125,19.4200061 3.17483263,19.9858319 C2.63028488,20.0779525 2.11416324,19.7111878 2.02204269,19.1666401 C1.92992213,18.6220923 2.29668684,18.1059707 2.84123458,18.0138501 C5.15309053,17.6227559 6.88862945,15.6607358 6.99484296,13.3125613 L7,13.0841529 L7,11 L3,11 C2.44771525,11 2,10.5522847 2,10 L2,5 C2,4.44771525 2.44771525,4 3,4 L8,4 C8.55228475,4 9,4.44771525 9,5 L9,13.0841529 Z M22,13.0841529 C22,16.5123195 19.5195713,19.4200061 16.1748326,19.9858319 C15.6302849,20.0779525 15.1141632,19.7111878 15.0220427,19.1666401 C14.9299221,18.6220923 15.2966868,18.1059707 15.8412346,18.0138501 C18.1530905,17.6227559 19.8886295,15.6607358 19.994843,13.3125613 L20,13.0841529 L20,11 L16,11 C15.4477153,11 15,10.5522847 15,10 L15,5 C15,4.44771525 15.4477153,4 16,4 L21,4 C21.5522847,4 22,4.44771525 22,5 L22,13.0841529 Z" id="形状结合" fill="#000000" transform="translate(12.000000, 12.000000) scale(-1, -1) translate(-12.000000, -12.000000) "></path>
    </g>
</svg>