<?xml version="1.0" encoding="UTF-8"?>
<svg width="24px" height="24px" viewBox="0 0 24 24" version="1.1" xmlns="http://www.w3.org/2000/svg" xmlns:xlink="http://www.w3.org/1999/xlink">
    <title>Icon / format_bold</title>
    <g id="Icon-/-format_bold" stroke="none" stroke-width="1" fill="none" fill-rule="evenodd" fill-opacity="0.86">
        <path d="M4,21 L4,3 C4,2.44771525 4.44771525,2 5,2 L12.4666667,2 C15.520997,2 18,4.46077507 18,7.5 C18,9.00109111 17.3952645,10.3610734 16.4151576,11.3531551 C18.5089515,12.1338056 20,14.1429424 20,16.5 C20,19.4668624 17.6376394,21.8824923 14.683829,21.9958404 L14.4666667,22 L5,22 C4.44771525,22 4,21.5522847 4,21 Z M6,20 L14.4666667,20 C16.4197181,20 18,18.4313378 18,16.5 C18,14.6330401 16.5233144,13.1049805 14.6606845,13.0051842 L14.4666667,13 L6,13 L6,20 Z M6,11 L12.4666667,11 C14.4197181,11 16,9.43133782 16,7.5 C16,5.63304011 14.5233144,4.10498045 12.6606845,4.00518421 L12.4666667,4 L6,4 L6,11 Z" id="形状结合" fill="#000000"></path>
    </g>
</svg>