<?xml version="1.0" encoding="UTF-8"?>
<svg width="24px" height="24px" viewBox="0 0 24 24" version="1.1" xmlns="http://www.w3.org/2000/svg" xmlns:xlink="http://www.w3.org/1999/xlink">
    <title>Icon / format_ltr</title>
    <g id="Icon-/-format_ltr" stroke="none" stroke-width="1" fill="none" fill-rule="evenodd" fill-opacity="0.86">
        <path d="M15.4326569,16 C15.5110734,16 15.5880155,16.0219448 15.6552571,16.063488 L19.7898778,18.6179463 C19.9947756,18.7445366 20.0612166,19.0181945 19.9382779,19.2291783 C19.9017402,19.2918834 19.8507741,19.3443633 19.7898778,19.3819863 L15.6552571,21.9364446 C15.4503593,22.0630349 15.1845953,21.9946204 15.0616567,21.7836366 C15.0213117,21.7143978 15,21.6351703 15,21.5544246 L15,20 L15,20 L5,20 C4.44771525,20 4,19.5522847 4,19 C4,18.4477153 4.44771525,18 5,18 L15,18 L15,16.445508 C15,16.1994607 15.1937071,16 15.4326569,16 Z M18,2 C18.5522847,2 19,2.44771525 19,3 C19,3.55228475 18.5522847,4 18,4 L13,4 L13,16 C13,16.5522847 12.5522847,17 12,17 C11.4477153,17 11,16.5522847 11,16 L11,4 L6,4 C5.44771525,4 5,3.55228475 5,3 C5,2.44771525 5.44771525,2 6,2 L18,2 Z" id="形状结合" fill="#000000"></path>
    </g>
</svg>