<?xml version="1.0" encoding="UTF-8"?>
<svg width="24px" height="24px" viewBox="0 0 24 24" version="1.1" xmlns="http://www.w3.org/2000/svg" xmlns:xlink="http://www.w3.org/1999/xlink">
    <title>Icon / format_symbol</title>
    <g id="Icon-/-format_symbol" stroke="none" stroke-width="1" fill="none" fill-rule="evenodd" fill-opacity="0.86">
        <path d="M15,20 C15,19.4477153 15.4477153,19 16,19 C18.2412234,17.8292898 19.9804786,15.0764862 20,12 C19.9804786,7.59875351 16.4074966,4.0217784 12,4 C7.59250337,4.0217784 4.0195214,7.59875351 4,12 C4.01887069,14.8931726 5.55741795,17.4990445 7.76886408,18.8633346 L8,19 C8.55228475,19 9,19.4477153 9,20 C9,20.5128358 8.61395981,20.9355072 8.11662113,20.9932723 L8,21 L3,21 C2.44771525,21 2,20.5522847 2,20 C2,19.4477153 2.44771525,19 3,19 L4.97508763,19.0005202 C3.05772331,17.1704499 2,14.6828015 2,12 C2,6.48215613 6.4771525,2 12,2 C17.5228475,2 22,6.48215613 22,12 C22,14.6552846 20.9640738,17.1194889 19.3156485,19.0010693 L21,19 C21.5522847,19 22,19.4477153 22,20 C22,20.5522847 21.5522847,21 21,21 L16,21 C15.4477153,21 15,20.5522847 15,20 Z" id="形状结合" fill="#000000"></path>
    </g>
</svg>