<?xml version="1.0" encoding="UTF-8"?>
<svg width="24px" height="24px" viewBox="0 0 24 24" version="1.1" xmlns="http://www.w3.org/2000/svg" xmlns:xlink="http://www.w3.org/1999/xlink">
    <title>Icon / format_color_text</title>
    <g id="Icon-/-format_color_text" stroke="none" stroke-width="1" fill="none" fill-rule="evenodd" fill-opacity="0.86">
        <path d="M5,20 L19,20 C19.5522847,20 20,20.4477153 20,21 C20,21.5522847 19.5522847,22 19,22 L5,22 C4.44771525,22 4,21.5522847 4,21 C4,20.4477153 4.44771525,20 5,20 Z M12.0218461,2.00101568 C12.4561752,1.98238647 12.8729142,2.22113409 13.0430584,2.62568958 L13.0430584,2.62568958 L18.9244589,16.6100193 C19.1410061,17.1249081 18.8761085,17.7134004 18.3327936,17.9244535 C17.7894787,18.1355067 17.1734888,17.8891992 16.9569416,17.3743104 L16.9569416,17.3743104 L15.1146417,12.9935002 C15.0770222,12.9977938 15.0387688,13 15,13 L9,13 L8.885,12.993 L7.04305843,17.3743104 C6.82651125,17.8891992 6.2105213,18.1355067 5.66720638,17.9244535 C5.12389146,17.7134004 4.85899387,17.1249081 5.07554106,16.6100193 L10.9569416,2.62568958 C11.1299696,2.21427722 11.5580224,1.97434097 12.0002524,2.00218519 Z M14.276,11 L11.999,5.587 L9.723,11 L14.276,11 Z" id="形状结合" fill="#000000"></path>
    </g>
</svg>