<?xml version="1.0" encoding="UTF-8"?>
<svg width="24px" height="24px" viewBox="0 0 24 24" version="1.1" xmlns="http://www.w3.org/2000/svg" xmlns:xlink="http://www.w3.org/1999/xlink">
    <title>Icon / format_underline</title>
    <g id="Icon-/-format_underline" stroke="none" stroke-width="1" fill="none" fill-rule="evenodd" fill-opacity="0.86">
        <path d="M18,2 C18.5248153,2 18.9370931,2.38604019 19,3 L19,11 C19,14.7869847 15.8659932,18 12,18 C8.21290457,18 5.12822351,14.91679 5,11 L5,3 C5,2.44771525 5.43670586,2 6,2 C6.47563496,2 6.88791272,2.38604019 7,3 L7,11 C6.95081967,13.6824152 9.21141471,16 12,16 C14.7170831,16 16.9329052,13.799742 17,11 L17,3 C17.0491803,2.44771525 17.4858862,2 18,2 Z M5,20 L19,20 C19.5522847,20 20,20.4477153 20,21 C20,21.5522847 19.5522847,22 19,22 L5,22 C4.44771525,22 4,21.5522847 4,21 C4,20.4477153 4.44771525,20 5,20 Z" id="形状结合" fill="#000000"></path>
    </g>
</svg>