<?xml version="1.0" encoding="UTF-8"?>
<svg width="24px" height="24px" viewBox="0 0 24 24" version="1.1" xmlns="http://www.w3.org/2000/svg" xmlns:xlink="http://www.w3.org/1999/xlink">
    <title>Icon / forum</title>
    <g id="Icon-/-forum" stroke="none" stroke-width="1" fill="none" fill-rule="evenodd" fill-opacity="0.86">
        <path d="M21,6 L19,6 L19,15 L6,15 L6,17 C6,17.55 6.45,18 7,18 L18,18 L22,22 L22,7 C22,6.45 21.55,6 21,6 Z M17,12 L17,3 C17,2.45 16.55,2 16,2 L3,2 C2.45,2 2,2.45 2,3 L2,17 L6,13 L16,13 C16.55,13 17,12.55 17,12 Z" id="Shape" fill="#000000"></path>
    </g>
</svg>
