<?xml version="1.0" encoding="UTF-8"?>
<svg width="24px" height="24px" viewBox="0 0 24 24" version="1.1" xmlns="http://www.w3.org/2000/svg" xmlns:xlink="http://www.w3.org/1999/xlink">
    <title>Icon / header</title>
    <g id="Icon-/-header" stroke="none" stroke-width="1" fill="none" fill-rule="evenodd" fill-opacity="0.86">
        <path d="M20,3 C20.5522847,3 21,3.44771525 21,4 L21,20 C21,20.5522847 20.5522847,21 20,21 L4,21 C3.44771525,21 3,20.5522847 3,20 L3,4 C3,3.44771525 3.44771525,3 4,3 L20,3 Z M9.76000001,8 L8.23999999,8 C8.10745166,8 8,8.10745166 8,8.23999999 L8,8.23999999 L8,15.76 C8,15.8925483 8.10745166,16 8.23999999,16 L8.23999999,16 L9.76000001,16 C9.89254834,16 10,15.8925483 10,15.76 L10,15.76 L10,12.849 L14,12.849 L14,15.76 C14,15.870457 14.0746192,15.9634857 14.1761985,15.991427 L14.24,16 L15.76,16 C15.8925483,16 16,15.8925483 16,15.76 L16,15.76 L16,8.23999999 C16,8.10745166 15.8925483,8 15.76,8 L15.76,8 L14.24,8 C14.1074517,8 14,8.10745166 14,8.23999999 L14,8.23999999 L14,10.849 L10,10.849 L10,8.23999999 C10,8.12954305 9.92538079,8.03651435 9.82380151,8.00857303 L9.76000001,8 Z" id="形状结合" fill="#000000"></path>
    </g>
</svg>