<?xml version="1.0" encoding="UTF-8"?>
<svg width="24px" height="24px" viewBox="0 0 24 24" version="1.1" xmlns="http://www.w3.org/2000/svg" xmlns:xlink="http://www.w3.org/1999/xlink">
    <title>Icon / home</title>
    <g id="Icon-/-home" stroke="none" stroke-width="1" fill="none" fill-rule="evenodd" fill-opacity="0.86">
        <path d="M3.51435707,7.71424607 L11.5143571,3.26980163 C11.8163796,3.10201133 12.1836204,3.10201133 12.4856429,3.26980163 L20.4856429,7.71424607 C20.8031081,7.89061562 21,8.22523622 21,8.58840335 L21,20 C21,20.5522847 20.5522847,21 20,21 L14.2490082,21 C14.1164599,21.000091 14.0090082,20.8926394 14.0090082,20.760091 C14.0090082,20.7600607 14.0090082,20.7600303 14.0090992,20.76 L14.0111929,15.24 C14.0113342,15.1074517 13.9039233,14.9999593 13.771375,14.999909 C13.7713446,14.999909 13.7713143,14.999909 13.771284,15 L10.2263408,15 C10.0937925,15 9.98634083,15.1074517 9.98634083,15.24 C9.98634083,15.2403222 9.98634148,15.2406444 9.98634278,15.2409666 L10.0085674,20.7590334 C10.0091013,20.8915806 9.90208328,20.9994642 9.76953602,20.9999981 C9.76921382,20.9999994 9.76889161,21 9.7685694,21 L4,21 C3.44771525,21 3,20.5522847 3,20 L3,8.58840335 C3,8.22523622 3.19689188,7.89061562 3.51435707,7.71424607 Z" id="矩形" fill="#000000"></path>
    </g>
</svg>