<svg xmlns="http://www.w3.org/2000/svg" width="24" height="24" viewBox="0 0 24 24"><path fill-opacity=".86" fill-rule="evenodd" d="M17.2222222,2 C17.651777,2 18,2.44771525 18,3 L18,11 L19.3888889,11 C19.7263962,11 20,11.2736038 20,11.6111111 L20,21.3888889 C20,21.7263962 19.7263962,22 19.3888889,22 L9.61111111,22 C9.27360376,22 9,21.7263962 9,21.3888889 L9,20 L4.77777778,20 C4.34822297,20 4,19.5522847 4,19 L4,3 C4,2.44771525 4.34822297,2 4.77777778,2 L17.2222222,2 Z M18,13 L11,13 L11,20 L12.656,20 L16.2145837,15.6097176 C16.5069817,15.223476 17.042845,15.1381179 17.4355129,15.4027144 L17.5304729,15.4761826 C17.5997333,15.5373361 17.6590857,15.6084941 17.7068351,15.687019 L17.7600782,15.7924894 L18,16.378 L18,13 Z M16.762,17.314 L14.582,20 L17.863,20 L16.762,17.314 Z M16,4 L6,4 L6,18 L9,18 L9,11.6111111 C9,11.2736038 9.27360376,11 9.61111111,11 L16,11 L16,4 Z M13,14 C13.5522847,14 14,14.4477153 14,15 C14,15.5522847 13.5522847,16 13,16 C12.4477153,16 12,15.5522847 12,15 C12,14.4477153 12.4477153,14 13,14 Z M14,6 C14.5522847,6 15,6.44771525 15,7 C15,7.55228475 14.5522847,8 14,8 L8,8 C7.44771525,8 7,7.55228475 7,7 C7,6.44771525 7.44771525,6 8,6 L14,6 Z"/></svg>