<svg xmlns="http://www.w3.org/2000/svg" width="24" height="24" viewBox="0 0 24 24"><g fill="none" fill-opacity=".86" fill-rule="evenodd"><path fill="#000" d="M17.2222222,2 C17.651777,2 18,2.44771525 18,3 L18,11 L9.61111111,11 C9.3073545,11 9.05535979,11.221619 9.00799841,11.5119857 L9,11.6111111 L9,20 L4.77777778,20 C4.34822297,20 4,19.5522847 4,19 L4,3 C4,2.44771525 4.34822297,2 4.77777778,2 L17.2222222,2 Z M14,6 L8,6 C7.44771525,6 7,6.44771525 7,7 C7,7.55228475 7.44771525,8 8,8 L14,8 C14.5522847,8 15,7.55228475 15,7 C15,6.44771525 14.5522847,6 14,6 Z"/><path fill="#000" d="M19.4444444,12 C19.7512693,12 20,12.2487307 20,12.5555556 L20,21.4444444 C20,21.7512693 19.7512693,22 19.4444444,22 L10.5555556,22 C10.2487307,22 10,21.7512693 10,21.4444444 L10,12.5555556 C10,12.2487307 10.2487307,12 10.5555556,12 L19.4444444,12 Z M17.0340679,15.0383944 C16.9667604,14.9789652 16.8675874,14.9897152 16.8125588,15.062405 L13.0270824,19.7346568 C13.0094334,19.7627978 13,19.7960059 13,19.8299942 C13,19.9238858 13.0704782,20 13.1574176,20 L18.8425647,20 C18.8732715,20 18.9033078,19.990301 18.9289747,19.9720975 C19.001645,19.9205583 19.0218688,19.8151557 18.9741458,19.7366743 L17.0660108,15.0766909 C17.0572273,15.0622463 17.0464559,15.0493324 17.0340679,15.0383944 Z M13,14 C12.4477153,14 12,14.4477153 12,15 C12,15.5522847 12.4477153,16 13,16 C13.5522847,16 14,15.5522847 14,15 C14,14.4477153 13.5522847,14 13,14 Z"/></g></svg>