<?xml version="1.0" encoding="UTF-8"?>
<svg width="24px" height="24px" viewBox="0 0 24 24" version="1.1" xmlns="http://www.w3.org/2000/svg" xmlns:xlink="http://www.w3.org/1999/xlink">
    <title>Icon / info</title>
    <g id="Icon-/-info" stroke="none" stroke-width="1" fill="none" fill-rule="evenodd" fill-opacity="0.86">
        <path d="M12,2 C17.5228475,2 22,6.4771525 22,12 C22,17.5228475 17.5228475,22 12,22 C6.4771525,22 2,17.5228475 2,12 C2,6.4771525 6.4771525,2 12,2 Z M12.76,10 L11.24,10 C11.1074517,10 11,10.1074517 11,10.24 L11,10.24 L11,16.76 C11,16.8925483 11.1074517,17 11.24,17 L11.24,17 L12.76,17 C12.8925483,17 13,16.8925483 13,16.76 L13,16.76 L13,10.24 C13,10.1074517 12.8925483,10 12.76,10 L12.76,10 Z M12.76,6 L11.24,6 C11.1074517,6 11,6.10745166 11,6.23999999 L11,6.23999999 L11,7.76000001 C11,7.89254834 11.1074517,8 11.24,8 L11.24,8 L12.76,8 C12.8925483,8 13,7.89254834 13,7.76000001 L13,7.76000001 L13,6.23999999 C13,6.10745166 12.8925483,6 12.76,6 L12.76,6 Z" id="形状结合备份" fill="#000000"></path>
    </g>
</svg>