<?xml version="1.0" encoding="UTF-8"?>
<svg width="24px" height="24px" viewBox="0 0 24 24" version="1.1" xmlns="http://www.w3.org/2000/svg" xmlns:xlink="http://www.w3.org/1999/xlink">
    <title>Icon / invisible</title>
    <g id="Icon-/-invisible" stroke="none" stroke-width="1" fill="none" fill-rule="evenodd" fill-opacity="0.86">
        <path d="M4.41922289,4.18926752 L4.43171966,4.20861172 L18.9446495,18.6573528 C18.9480162,18.6607046 18.9514576,18.6639359 18.9549682,18.6670467 L18.9473078,18.6554391 C19.0412286,18.7489695 19.041545,18.9009288 18.9480145,18.9948496 L18.9473291,18.995535 L17.8731931,20.0654754 C17.7795522,20.1587506 17.6281206,20.1587601 17.534468,20.0654966 L15.8350289,18.3735936 C14.6732352,18.8006914 13.3948922,19.0142403 12,19.0142403 C7.39817053,19.0142403 4.0648372,16.6900211 2,12.0415828 C2.94602365,10.2880776 4.00951187,8.86530506 5.19046465,7.77326513 L3.02348624,5.61481509 C2.92956547,5.52128461 2.92924908,5.36932535 3.02277956,5.27540458 C3.02300756,5.27517563 3.02323602,5.27494714 3.02346495,5.27471911 L4.09760096,4.20477876 C4.18573364,4.11699033 4.32505793,4.11181791 4.41922289,4.18926752 Z M7.41393249,9.98677333 C7.12542996,10.6176499 6.96470748,11.3187325 6.96470748,12.0572071 C6.96470748,14.8186308 9.21206206,17.0572071 11.9843144,17.0572071 C12.7260135,17.0572071 13.4301406,16.8969704 14.0637094,16.6093545 L12.447098,15.000092 C12.2999873,15.0222726 12.1493757,15.0337706 11.9960786,15.0337706 C10.3392244,15.0337706 8.99607861,13.6906249 8.99607861,12.0337706 C8.99607861,11.8849721 9.00691168,11.7387038 9.02783217,11.5957113 L7.41393249,9.98677333 Z M12,5.0689253 C16.158814,5.0689253 19.4921474,7.39314446 22,12.0415828 C21.2551544,13.7184069 20.3452457,15.0927919 19.2702739,16.1647378 L16.7440022,13.6495604 C16.9125768,13.1494002 17.0039214,12.6139293 17.0039214,12.0572071 C17.0039214,9.29578333 14.7565668,7.05720708 11.9843144,7.05720708 C11.4243864,7.05720708 10.8858712,7.14852811 10.3829608,7.3170335 L8.68138718,5.62242303 C9.72206383,5.25342454 10.8282681,5.0689253 12,5.0689253 Z M12.11,9.03672472 L11.9960786,9.03377063 C13.6101408,9.03377063 14.9264897,10.3084327 14.9934085,11.90604 L12.11,9.03672472 Z" id="形状结合备份" fill="#000000"></path>
    </g>
</svg>