<svg xmlns="http://www.w3.org/2000/svg" width="24" height="24" viewBox="0 0 24 24"><defs><clipPath id="a"><path d="M7,0 C7.55228475,-1.01453063e-16 8,0.44771525 8,1 L8,17 C8,17.5522847 7.55228475,18 7,18 L1,18 C0.44771525,18 6.76353751e-17,17.5522847 0,17 L0,1 C-6.76353751e-17,0.44771525 0.44771525,1.01453063e-16 1,0 L7,0 Z"/></clipPath><clipPath id="b"><path d="M7,0 C7.55228475,-1.01453063e-16 8,0.44771525 8,1 L8,10 C8,10.5522847 7.55228475,11 7,11 L1,11 C0.44771525,11 6.76353751e-17,10.5522847 0,10 L0,1 C-6.76353751e-17,0.44771525 0.44771525,1.01453063e-16 1,0 L7,0 Z"/></clipPath><clipPath id="c"><path d="M7,0 C7.55228475,-1.01453063e-16 8,0.44771525 8,1 L8,4 C8,4.55228475 7.55228475,5 7,5 L1,5 C0.44771525,5 6.76353751e-17,4.55228475 0,4 L0,1 C-6.76353751e-17,0.44771525 0.44771525,1.01453063e-16 1,0 L7,0 Z"/></clipPath></defs><g clip-path="url(#a)" transform="translate(3 3)"><polygon fill="rgba(0, 0, 0, 0.16)" points="0 0 8 0 8 18 0 18 0 0"/></g><g clip-path="url(#b)" transform="translate(13 3)"><polygon fill="rgba(0, 0, 0, 0.86)" points="0 0 8 0 8 11 0 11 0 0"/></g><g clip-path="url(#c)" transform="translate(13 16)"><polygon fill="rgba(0, 0, 0, 0.16)" points="0 0 8 0 8 5 0 5 0 0"/></g></svg>
