<svg xmlns="http://www.w3.org/2000/svg" width="24" height="24" viewBox="0 0 24 24"><defs><clipPath id="a"><path d="M16,0 C17.1,0 18,0.9 18,2 L18,16 C18,17.1 17.1,18 16,18 L2,18 C0.9,18 0,17.1 0,16 L0,2 C0,0.9 0.9,0 2,0 Z M5,4 C4.44771525,4 4,4.44771525 4,5 L4,13 C4,13.5522847 4.44771525,14 5,14 C5.55228475,14 6,13.5522847 6,13 L6,5 C6,4.44771525 5.55228475,4 5,4 Z M13,4 C12.4477153,4 12,4.44771525 12,5 L12,11 C12,11.5522847 12.4477153,12 13,12 C13.5522847,12 14,11.5522847 14,11 L14,5 C14,4.44771525 13.5522847,4 13,4 Z M9,4 C8.44771525,4 8,4.44771525 8,5 L8,8 C8,8.55228475 8.44771525,9 9,9 C9.55228475,9 10,8.55228475 10,8 L10,5 C10,4.44771525 9.55228475,4 9,4 Z"/></clipPath></defs><g clip-path="url(#a)" transform="translate(3 3)"><polygon fill="rgba(0, 0, 0, 0.86)" points="0 0 18 0 18 18 0 18 0 0"/></g></svg>