<?xml version="1.0" encoding="UTF-8"?>
<svg width="24px" height="24px" viewBox="0 0 24 24" version="1.1" xmlns="http://www.w3.org/2000/svg" xmlns:xlink="http://www.w3.org/1999/xlink">
    <title>Icon / mic_outline</title>
    <g id="Icon-/-mic_outline" stroke="none" stroke-width="1" fill="none" fill-rule="evenodd" fill-opacity="0.86">
        <path d="M5.76189887,11.5 C5.88912589,11.5017793 5.99287094,11.6025219 5.99844795,11.7296391 C6.00168475,11.8253244 6.00558683,11.9031301 6.01015419,11.963056 C6.24742668,15.0761803 8.85371619,17.5 11.9981803,17.5 C15.1511448,17.5 17.7617544,15.0634604 17.9879038,11.9402139 L17.9954354,11.7313512 C18.0000907,11.6022526 18.106097,11.5 18.2352795,11.5 L19.7593204,11.5 C19.8918684,11.499666 19.999591,11.606846 19.9999258,11.7393939 L19.999822,11.750337 C19.9957116,11.8893005 19.9906216,12.0006944 19.9845521,12.0845186 C19.70712,15.9160066 16.7427552,18.9705765 12.9991056,19.4379513 L12.9991132,21.76 C12.9991132,21.8925483 12.8915613,22 12.7588893,22 L11.2374712,22 C11.1047992,22 10.9972473,21.8925483 10.9972473,21.76 L10.9969898,19.4379113 C7.264201,18.9717233 4.30507602,15.9330832 4.01406679,12.114908 L4.00017615,11.749107 C3.99514649,11.6166541 4.09844341,11.5052025 4.23089629,11.5001728 L5.76189887,11.5 Z M11.9981803,2 C14.2093803,2 16.001912,3.790861 16.001912,6 L16.001912,12 C16.001912,14.209139 14.2093803,16 11.9981803,16 C9.78698028,16 7.99444852,14.209139 7.99444852,12 L7.99444852,6 C7.99444852,3.790861 9.78698028,2 11.9981803,2 Z M11.9981803,4 C10.9428348,4 10.0782256,4.81587779 10.0018052,5.85073766 L9.99631439,6 L9.99631439,12 C9.99631439,13.1045695 10.8925803,14 11.9981803,14 C13.0535257,14 13.9181349,13.1841222 13.9945553,12.1492623 L14.0000462,12 L14.0000462,6 C14.0000462,4.8954305 13.1037803,4 11.9981803,4 Z" id="形状结合" fill="#000000"></path>
    </g>
</svg>