<?xml version="1.0" encoding="UTF-8"?>
<svg width="24px" height="24px" viewBox="0 0 24 24" version="1.1" xmlns="http://www.w3.org/2000/svg" xmlns:xlink="http://www.w3.org/1999/xlink">
    <title>Icon / money_circle</title>
    <defs>
        <linearGradient x1="11.8145929%" y1="21.7914721%" x2="96.2757955%" y2="85.8973717%" id="linearGradient-1">
            <stop stop-color="#6A6A6A" stop-opacity="0.5" offset="0%"></stop>
            <stop stop-color="#EFEFEF" stop-opacity="0.542945902" offset="36.5872765%"></stop>
            <stop stop-color="#C8C6C6" offset="54.8064701%"></stop>
            <stop stop-color="#6A6A6A" offset="100%"></stop>
        </linearGradient>
        <path d="M9.94697155,3.25793009 L10.8904678,3.61744461 C11.4261305,3.82155062 12.0226063,3.80094241 12.5425488,3.56031328 L13.4584189,3.13653924 C14.1205916,2.83013321 14.9095595,3.05410639 15.3070913,3.66130764 L15.8569056,4.50112764 C16.1690636,4.9779396 16.6639108,5.30834149 17.2274135,5.41625231 L18.2199952,5.60631368 C18.9376341,5.74369001 19.4429615,6.38399144 19.4039996,7.10654929 L19.3501732,8.10594179 C19.3195883,8.67330285 19.5237368,9.22848954 19.9155651,9.64368859 L20.6057561,10.3750332 C21.1047027,10.9037538 21.1333626,11.7157668 20.6728788,12.2776583 L20.0358727,13.054842 C19.6742728,13.4960836 19.5097633,14.0640799 19.5802368,14.6279121 L19.7043942,15.6211998 C19.7941169,16.3392408 19.3351659,17.0128894 18.6289696,17.1994925 L17.6521793,17.4576598 C17.0976596,17.6041757 16.6273016,17.9679248 16.3495071,18.4651333 L15.8601851,19.3409471 C15.5064275,19.974085 14.7351403,20.2519783 14.0530411,19.9920819 L13.1095092,19.6325321 C12.5738822,19.4284261 11.9773707,19.4490696 11.4574282,19.6896635 L10.5415581,20.1134375 C9.87938545,20.4198788 9.09041752,20.1959056 8.69292141,19.5887044 L8.14307139,18.7488138 C7.83091343,18.2720371 7.33610189,17.9416352 6.7725992,17.8337597 L5.7799818,17.6436984 C5.06237852,17.5062514 4.55705121,16.8660206 4.59597738,16.1434627 L4.64980387,15.1440702 C4.68038872,14.5767092 4.47624019,14.0214872 4.08444755,13.6062882 L3.39425656,12.8749436 C2.89527436,12.3462582 2.86665008,11.5342099 3.32713387,10.9723185 L3.96410436,10.1951347 C4.32570427,9.75389313 4.49021369,9.18593217 4.4197402,8.62206462 L4.29561847,7.62881224 C4.20586013,6.91073597 4.66484676,6.23712263 5.37104311,6.0504842 L6.34783338,5.79235221 C6.90235311,5.64580099 7.37267538,5.28201661 7.65046995,4.78484346 L8.1397919,3.90902966 C8.49354953,3.2758917 9.26483671,2.99799841 9.94697155,3.25793009 Z" id="path-2"></path>
        <filter x="-8.3%" y="-8.7%" width="116.7%" height="117.4%" filterUnits="objectBoundingBox" id="filter-3">
            <feGaussianBlur stdDeviation="0.5" in="SourceAlpha" result="shadowBlurInner1"></feGaussianBlur>
            <feOffset dx="0" dy="0" in="shadowBlurInner1" result="shadowOffsetInner1"></feOffset>
            <feComposite in="shadowOffsetInner1" in2="SourceAlpha" operator="arithmetic" k2="-1" k3="1" result="shadowInnerInner1"></feComposite>
            <feColorMatrix values="0 0 0 0 1   0 0 0 0 1   0 0 0 0 1  0 0 0 0.120329484 0" type="matrix" in="shadowInnerInner1" result="shadowMatrixInner1"></feColorMatrix>
            <feGaussianBlur stdDeviation="0.5" in="SourceAlpha" result="shadowBlurInner2"></feGaussianBlur>
            <feOffset dx="0" dy="0" in="shadowBlurInner2" result="shadowOffsetInner2"></feOffset>
            <feComposite in="shadowOffsetInner2" in2="SourceAlpha" operator="arithmetic" k2="-1" k3="1" result="shadowInnerInner2"></feComposite>
            <feColorMatrix values="0 0 0 0 0   0 0 0 0 0   0 0 0 0 0  0 0 0 0.140030571 0" type="matrix" in="shadowInnerInner2" result="shadowMatrixInner2"></feColorMatrix>
            <feMerge>
                <feMergeNode in="shadowMatrixInner1"></feMergeNode>
                <feMergeNode in="shadowMatrixInner2"></feMergeNode>
            </feMerge>
        </filter>
    </defs>
    <g id="Icon-/-money_circle" stroke="none" stroke-width="1" fill="none" fill-rule="evenodd">
        <g id="Combined-Shape-Copy-3">
            <use fill="#FFB329" fill-rule="evenodd" xlink:href="#path-2"></use>
            <use fill="url(#linearGradient-1)" fill-rule="evenodd" style="mix-blend-mode: overlay;" xlink:href="#path-2"></use>
            <use fill="black" fill-opacity="1" filter="url(#filter-3)" xlink:href="#path-2"></use>
            <path stroke="#FFFFFF" stroke-width="1" d="M13.2484448,2.68276519 C13.691605,2.47770244 14.1771973,2.45004579 14.6185248,2.57532202 C15.06098,2.70091837 15.458735,2.98010218 15.725416,3.3874383 L15.725416,3.3874383 L16.2752311,4.22725944 C16.5135014,4.59121012 16.8914957,4.84283851 17.321446,4.92517403 L17.321446,4.92517403 L18.3140024,5.11523053 C18.7952531,5.20735549 19.205053,5.46844006 19.4882123,5.82722734 C19.772711,6.18771166 19.9295167,6.64679947 19.903276,7.13343992 L19.903276,7.13343992 L19.8494482,8.13285632 C19.8262181,8.56378475 19.9816827,8.98524993 20.2792016,9.30051438 L20.2792016,9.30051438 L20.9694002,10.0318671 C21.3053724,10.387888 21.4826741,10.8393796 21.4987932,11.296285 C21.5149178,11.7533444 21.3697722,12.2161133 21.0595821,12.5946134 L21.0595821,12.5946134 L20.4226003,13.3717674 C20.1481168,13.7067054 20.022869,14.137807 20.076376,14.5658965 L20.076376,14.5658965 L20.2005359,15.5592045 C20.260985,16.042972 20.136809,16.5118651 19.8783329,16.8912044 C19.6210319,17.2688193 19.2304862,17.5577104 18.7567332,17.6828935 L18.7567332,17.6828935 L17.7799066,17.9410703 C17.357059,18.0527957 16.9979158,18.3297101 16.7860008,18.7090047 L16.7860008,18.7090047 L16.2966729,19.584829 C16.0592474,20.0097615 15.6819673,20.3158794 15.2492356,20.4717976 C14.8178363,20.6272358 14.3315024,20.6332478 13.8749963,20.4593078 L13.8749963,20.4593078 L12.9314676,20.0997593 C12.5216462,19.9435927 12.0652338,19.9593483 11.6673921,20.1434422 L11.6673921,20.1434422 L10.7515521,20.5672023 C10.3083887,20.7722902 9.82279308,20.7999583 9.38146815,20.6746888 C8.93900538,20.5490964 8.5412503,20.2699045 8.27459426,19.86257 L8.27459426,19.86257 L7.7247552,19.0226962 C7.48649109,18.6587818 7.10853817,18.4071507 6.67856989,18.3248386 L6.67856989,18.3248386 L5.68592354,18.1347717 C5.20470399,18.0426008 4.79492583,17.7815139 4.51177698,17.4227399 C4.2272926,17.0622737 4.07048381,16.6032226 4.09670101,16.1165721 L4.09670101,16.1165721 L4.15052878,15.1171557 C4.1737594,14.6862186 4.01829368,14.2647171 3.72081111,13.9494624 L3.72081111,13.9494624 L3.0306361,13.2181347 C2.69463669,12.8621341 2.51732633,12.410641 2.50120678,11.9537245 C2.48508182,11.4966548 2.63023724,11.0338674 2.94042187,10.655374 L2.94042187,10.655374 L3.57737671,9.87820933 C3.85186115,9.54327019 3.97710767,9.11219372 3.92359913,8.68406487 L3.92359913,8.68406487 L3.79947943,7.69082879 C3.73900725,7.20704488 3.86317612,6.73815866 4.1216461,6.35881974 C4.37894612,5.98119789 4.76950085,5.69229675 5.24329577,5.56707897 L5.24329577,5.56707897 L6.22007727,5.3089493 C6.64293923,5.19719325 7.00206231,4.92023768 7.21397626,4.54097205 L7.21397626,4.54097205 L7.70330408,3.66514775 C7.94073337,3.24020854 8.31802133,2.93408768 8.75076675,2.77817603 C9.18216681,2.6227491 9.66850548,2.6167479 10.125007,2.79070062 L10.125007,2.79070062 L11.068499,3.15021353 C11.4783406,3.30637736 11.9347208,3.29066585 12.3325849,3.10653452 L12.3325849,3.10653452 Z"></path>
        </g>
        <path d="M14.9211816,11.9247481 C15.2741013,11.9247481 15.5605289,11.6383205 15.5605289,11.2854008 C15.5605289,10.9324811 15.2741013,10.6460536 14.9211816,10.6460536 L13.1847145,10.6460536 L14.9484604,7.99361489 C15.1441007,7.69951515 15.0643954,7.30269363 14.7702957,7.10705337 C14.4761959,6.9114131 14.0798006,6.99154463 13.8837341,7.28521813 L12.0262172,10.0791656 L10.1682741,7.28521813 C9.97263384,6.99197086 9.57581232,6.91183933 9.28171258,7.10705337 C8.98761284,7.30269363 8.90790753,7.69951515 9.10354779,7.99361489 L10.8672938,10.6460536 L9.19987613,10.6460536 C8.84695644,10.6460536 8.56052887,10.9324811 8.56052887,11.2854008 C8.56052887,11.6383205 8.84695644,11.9247481 9.19987613,11.9247481 L11.4209685,11.9247481 L11.4209685,13.0018351 L9.19987613,13.0018351 C8.84695644,13.0018351 8.56052887,13.2882627 8.56052887,13.6411823 C8.56052887,13.994102 8.84695644,14.2805296 9.19987613,14.2805296 L11.4209685,14.2805296 L11.4209685,15.9257832 C11.4209685,16.2787029 11.7073961,16.5651305 12.0603158,16.5651305 C12.4132354,16.5651305 12.699663,16.2787029 12.699663,15.9257832 L12.699663,14.2805296 L14.9211816,14.2805296 C15.2741013,14.2805296 15.5605289,13.994102 15.5605289,13.6411823 C15.5605289,13.2882627 15.2741013,13.0018351 14.9211816,13.0018351 L12.699663,13.0018351 L12.699663,11.9247481 L14.9211816,11.9247481 Z" id="路径" fill="#FFFFFF"></path>
    </g>
</svg>