<?xml version="1.0" encoding="UTF-8"?>
<svg width="24px" height="24px" viewBox="0 0 24 24" version="1.1" xmlns="http://www.w3.org/2000/svg" xmlns:xlink="http://www.w3.org/1999/xlink">
    <title>Icon / notification</title>
    <g id="Icon-/-notification" stroke="none" stroke-width="1" fill="none" fill-rule="evenodd" fill-opacity="0.86">
        <path d="M4,18.0102749 C4,17.4636648 4.44311502,17.0205498 4.98972509,17.0205498 L6.1,17.0205498 L6.1,17.0205498 L6.1,9.85 C6.1,8.48333333 6.5125,7.24583333 7.3375,6.1375 C8.1625,5.02916667 9.25,4.33333333 10.6,4.05 L10.6,3.325 C10.6,2.94166667 10.7375,2.625 11.0125,2.375 C11.2875,2.125 11.6166667,2 12,2 C12.3833333,2 12.7125,2.125 12.9875,2.375 C13.2625,2.625 13.4,2.94166667 13.4,3.325 L13.4,4.05 C14.75,4.33333333 15.8416667,5.02916667 16.675,6.1375 C17.5083333,7.24583333 17.925,8.48333333 17.925,9.85 L17.925,17.0205498 L19.0102749,17.0205498 C19.556885,17.0205498 20,17.4636648 20,18.0102749 C20,18.556885 19.556885,19 19.0102749,19 L4.98972509,19 C4.44311502,19 4,18.556885 4,18.0102749 Z M12,22 C11.4666667,22 11,21.8041667 10.6,21.4125 C10.2,21.0208333 10,20.55 10,20 L14,20 C14,20.55 13.8041667,21.0208333 13.4125,21.4125 C13.0208333,21.8041667 12.55,22 12,22 Z" id="形状" fill="#000000"></path>
    </g>
</svg>
