<?xml version="1.0" encoding="UTF-8"?>
<svg width="24px" height="24px" viewBox="0 0 24 24" version="1.1" xmlns="http://www.w3.org/2000/svg" xmlns:xlink="http://www.w3.org/1999/xlink">
    <title>Icon / notification_outline</title>
    <g id="Icon-/-notification_outline" stroke="none" stroke-width="1" fill="none" fill-rule="evenodd" fill-opacity="0.86">
        <path d="M9.6224,19.2046932 C9.2488,19.2046932 9.0232,19.6129272 9.2008,19.9470109 C9.7408,20.9598548 10.7888,21.6492079 12,21.6492079 C13.212,21.6492079 14.26,20.9598548 14.7992,19.9470109 C14.9776,19.6129272 14.752,19.2046932 14.3784,19.2046932 L9.6224,19.2046932 Z M18.4,13.791286 L18.4,9.00492622 C18.4,5.53371534 15.828,2.95818551 12.4272,2.73410499 C8.6984,2.48802385 5.6,5.4939621 5.6,9.23814379 L5.6,13.791286 C5.6,14.1302587 5.4104,14.4618979 5.0952,14.5686417 C4.4592,14.783759 4,15.3948877 4,16.1152047 C4,17.0147861 4.7168,17.7448811 5.6,17.7448811 L18.4,17.7448811 C19.284,17.7448811 20,17.0147861 20,16.1152047 C20,15.3948877 19.5416,14.783759 18.9056,14.5686417 C18.5904,14.4618979 18.4,14.1302587 18.4,13.791286 Z M16.5714286,12.7084816 L16.5714286,9.37840633 C16.5714286,6.96333642 14.7342857,5.17143013 12.3051429,5.01552773 C9.64171429,4.84431855 7.42857143,6.93567839 7.42857143,9.54066577 L7.42857143,12.7084816 C7.42857143,12.8657068 7.42857143,13.7826019 7.42857143,15.4591669 L16.5714286,15.4591669 C16.5714286,13.7826019 16.5714286,12.8657068 16.5714286,12.7084816 Z" id="Fill-1" fill="#000000"></path>
    </g>
</svg>
