<?xml version="1.0" encoding="UTF-8"?>
<svg width="24px" height="24px" viewBox="0 0 24 24" version="1.1" xmlns="http://www.w3.org/2000/svg" xmlns:xlink="http://www.w3.org/1999/xlink">
    <title>Icon / notification_outline</title>
    <g id="Icon-/-notification_outline" stroke="none" stroke-width="1" fill="none" fill-rule="evenodd" fill-opacity="0.86">
        <path d="M4,18.0066734 C4,17.4580742 4.44472748,17.0133467 4.99332663,17.0133467 L6.1,17.0133467 L6.1,17.0133467 L6.1,9.85 C6.1,8.48333333 6.5125,7.24583333 7.3375,6.1375 C8.1625,5.02916667 9.25,4.33333333 10.6,4.05 L10.6,3.325 C10.6,2.94166667 10.7375,2.625 11.0125,2.375 C11.2875,2.125 11.6166667,2 12,2 C12.3833333,2 12.7125,2.125 12.9875,2.375 C13.2625,2.625 13.4,2.94166667 13.4,3.325 L13.4,4.05 C14.75,4.33333333 15.8416667,5.02916667 16.675,6.1375 C17.5083333,7.24583333 17.925,8.48333333 17.925,9.85 L17.925,17.0133467 L19.0066734,17.0133467 C19.5552725,17.0133467 20,17.4580742 20,18.0066734 C20,18.5552725 19.5552725,19 19.0066734,19 L4.99332663,19 C4.44472748,19 4,18.5552725 4,18.0066734 Z M12,22 C11.4666667,22 11,21.8041667 10.6,21.4125 C10.2,21.0208333 10,20.55 10,20 L14,20 C14,20.55 13.8041667,21.0208333 13.4125,21.4125 C13.0208333,21.8041667 12.55,22 12,22 Z M8.01540565,16.982754 L15.9868889,16.982754 C15.9868889,15.6275847 15.9868889,14.525 15.9868889,13.675 C15.9868889,12.4626007 15.9868889,11.2502014 15.9868889,10.0378022 C15.9868889,7.83653786 14.2024116,6.05206056 12.0011473,6.05206056 C9.79988295,6.05206056 8.01540565,7.83653786 8.01540565,10.0378022 L8.01540565,16.982754 L8.01540565,16.982754 Z" id="形状" fill="#000000"></path>
    </g>
</svg>
