<svg xmlns="http://www.w3.org/2000/svg" width="24" height="24" viewBox="0 0 24 24"><defs><clipPath id="a"><path d="M17.2,0 C17.6418278,0 18,0.3581722 18,0.8 L18,17.2 C18,17.6418278 17.6418278,18 17.2,18 L0.8,18 C0.3581722,18 0,17.6418278 0,17.2 L0,0.8 C0,0.3581722 0.3581722,0 0.8,0 L17.2,0 Z M8,4 L6,4 L6,5.999 L4.23999999,6 C4.12954305,6 4.03651435,6.07461921 4.00857303,6.17619849 L4,6.23999999 L4,7.76000001 C4,7.89254834 4.10745166,8 4.23999999,8 L6,7.999 L6,10 L4.23999999,10 C4.12954305,10 4.03651435,10.0746192 4.00857303,10.1761985 L4,10.24 L4,11.76 C4,11.8925483 4.10745166,12 4.23999999,12 L6,12 L6,13.76 C6,13.870457 6.07461921,13.9634857 6.17619849,13.991427 L6.23999999,14 L7.76000001,14 C7.89254834,14 8,13.8925483 8,13.76 L8,12 L10,12 L10,13.76 C10,13.870457 10.0746192,13.9634857 10.1761985,13.991427 L10.24,14 L11.76,14 C11.8925483,14 12,13.8925483 12,13.76 L12,12 L13.76,12 C13.870457,12 13.9634857,11.9253808 13.991427,11.8238015 L14,11.76 L14,10.24 C14,10.1074517 13.8925483,10 13.76,10 L12,10 L12,8 L13.76,8 C13.870457,8 13.9634857,7.92538079 13.991427,7.82380151 L14,7.76000001 L14,6.23999999 C14,6.10745166 13.8925483,6 13.76,6 L12,6 L12,4 L10,4 L10,6 L8,5.999 L8,4 Z M8,7.999 L10,8 L10,10 L8,10 L8,7.999 Z"/></clipPath></defs><g clip-path="url(#a)" transform="translate(3 3)"><polygon fill="rgba(0, 0, 0, 0.86)" points="0 0 18 0 18 18 0 18 0 0"/></g></svg>