<svg xmlns="http://www.w3.org/2000/svg" width="24" height="24" viewBox="0 0 24 24"><defs><clipPath id="a"><path d="M17.2,0 C17.6418278,0 18,0.3581722 18,0.8 L18,17.2 C18,17.6418278 17.6418278,18 17.2,18 L0.8,18 C0.3581722,18 0,17.6418278 0,17.2 L0,0.8 C0,0.3581722 0.3581722,0 0.8,0 L17.2,0 Z M16,2 L2,2 L2,16 L16,16 L16,2 Z M8,4 L8,5.999 L10,6 L10,4 L12,4 L12,6 L13.76,6 C13.8925483,6 14,6.10745166 14,6.23999999 L14,7.76000001 C14,7.89254834 13.8925483,8 13.76,8 L12,8 L12,10 L13.76,10 C13.8925483,10 14,10.1074517 14,10.24 L14,11.76 C14,11.8925483 13.8925483,12 13.76,12 L12,12 L12,13.76 C12,13.8925483 11.8925483,14 11.76,14 L10.24,14 C10.1074517,14 10,13.8925483 10,13.76 L10,12 L8,12 L8,13.76 C8,13.8925483 7.89254834,14 7.76000001,14 L6.23999999,14 C6.10745166,14 6,13.8925483 6,13.76 L6,12 L4.23999999,12 C4.10745166,12 4,11.8925483 4,11.76 L4,10.24 C4,10.1074517 4.10745166,10 4.23999999,10 L6,10 L6,7.999 L4.23999999,8 C4.10745166,8 4,7.89254834 4,7.76000001 L4,6.23999999 C4,6.10745166 4.10745166,6 4.23999999,6 L6,5.999 L6,4 L8,4 Z M8,7.999 L8,10 L10,10 L10,8 L8,7.999 Z"/></clipPath></defs><g clip-path="url(#a)" transform="translate(3 3)"><polygon fill="rgba(0, 0, 0, 0.86)" points="0 0 18 0 18 18 0 18 0 0"/></g></svg>