<?xml version="1.0" encoding="UTF-8"?>
<svg width="24px" height="24px" viewBox="0 0 24 24" version="1.1" xmlns="http://www.w3.org/2000/svg" xmlns:xlink="http://www.w3.org/1999/xlink">
    <title>Icon / overflow</title>
    <g id="Icon-/-overflow" stroke="none" stroke-width="1" fill="none" fill-rule="evenodd" fill-opacity="0.86">
        <path d="M12,13.5 C12.8284271,13.5 13.5,12.8284271 13.5,12 C13.5,11.1715729 12.8284271,10.5 12,10.5 C11.1715729,10.5 10.5,11.1715729 10.5,12 C10.5,12.8284271 11.1715729,13.5 12,13.5 Z M7,13.5 C7.82842712,13.5 8.5,12.8284271 8.5,12 C8.5,11.1715729 7.82842712,10.5 7,10.5 C6.17157288,10.5 5.5,11.1715729 5.5,12 C5.5,12.8284271 6.17157288,13.5 7,13.5 Z M17,13.5 C17.8284271,13.5 18.5,12.8284271 18.5,12 C18.5,11.1715729 17.8284271,10.5 17,10.5 C16.1715729,10.5 15.5,11.1715729 15.5,12 C15.5,12.8284271 16.1715729,13.5 17,13.5 Z" id="Oval-38-Copy-2" fill="#000000"></path>
    </g>
</svg>