<?xml version="1.0" encoding="UTF-8"?>
<svg width="24px" height="24px" viewBox="0 0 24 24" version="1.1" xmlns="http://www.w3.org/2000/svg" xmlns:xlink="http://www.w3.org/1999/xlink">
    <title>Icon / people</title>
    <g id="Icon-/-people" stroke="none" stroke-width="1" fill="none" fill-rule="evenodd" fill-opacity="0.86">
        <path d="M8.24131641,12.4109277 C11.7098659,12.4109277 14.5218864,14.5004634 14.5218864,18.170886 L14.5218864,18.170886 L14.5218864,18.2342456 C14.5218864,18.604567 14.4183877,18.9507921 14.2388564,19.2413387 C13.965309,19.648571 13.5374545,19.935587 13.0378924,20.007801 C11.6159713,20.2138303 10.0856058,20.3259279 8.4899223,20.3259279 C6.72550085,20.3259279 5.03979587,20.1890182 3.49268213,19.9404538 C2.63559368,19.8026579 2,19.028165 2,18.1105594 C2,16.8753939 2.3184466,15.8192556 2.87319625,14.9615285 C3.97625933,13.3087086 5.96774717,12.4109277 8.24131641,12.4109277 Z M16.975544,12.0503091 C19.7503836,12.0503091 22,13.7219376 22,16.6582758 L22,16.6582758 L22,16.7089634 C22,17.4529728 21.4777915,18.0754028 20.7814019,18.1760691 C19.6438651,18.3408926 18.4195727,18.4305707 17.1430259,18.4305707 C16.6788546,18.4305707 16.2214931,18.4187267 15.7726445,18.3957573 L15.7780004,18.2342456 L15.7780004,18.170886 C15.7780004,16.0553967 14.9771647,14.3041741 13.6379204,13.0804304 C14.5249344,12.4067312 15.6942456,12.0503091 16.975544,12.0503091 Z M8.29015505,3.61812974 C10.3715359,3.61812974 12.058497,5.26966454 12.058497,7.30731758 C12.058497,9.34497062 10.3715359,11.1548137 8.29015505,11.1548137 C6.20877416,11.1548137 4.52181306,9.34497062 4.52181306,7.30731758 C4.52181306,5.26966454 6.20877416,3.61812974 8.29015505,3.61812974 Z M16.8122325,4.71277518 C18.4705926,4.71277518 19.814695,6.02865131 19.814695,7.65217083 C19.814695,9.27569036 18.4705926,10.7177001 16.8122325,10.7177001 C15.1538724,10.7177001 13.80977,9.27569036 13.80977,7.65217083 C13.80977,6.02865131 15.1538724,4.71277518 16.8122325,4.71277518 Z" id="Fill-2备份" fill="#000000"></path>
    </g>
</svg>