<?xml version="1.0" encoding="UTF-8"?>
<svg width="24px" height="24px" viewBox="0 0 24 24" version="1.1" xmlns="http://www.w3.org/2000/svg" xmlns:xlink="http://www.w3.org/1999/xlink">
    <title>Icon / people_outline</title>
    <g id="Icon-/-people_outline" stroke="none" stroke-width="1" fill="none" fill-rule="evenodd" fill-opacity="0.86">
        <path d="M8.28499618,4 C10.36467,4 12.0502476,5.65018029 12.0502476,7.68616216 C12.0502476,9.72214402 10.36467,11.5305028 8.28499618,11.5305028 C6.20532233,11.5305028 4.5197448,9.72214402 4.5197448,7.68616216 C4.5197448,5.65018029 6.20532233,4 8.28499618,4 Z M8.28499618,6 C7.30050412,6 6.5197448,6.76436065 6.5197448,7.68616216 C6.5197448,8.66369889 7.35559318,9.53050275 8.28499618,9.53050275 C9.21439917,9.53050275 10.0502476,8.66369889 10.0502476,7.68616216 C10.0502476,6.76436065 9.26948823,6 8.28499618,6 Z M8.27541896,12.7253093 C11.6623577,12.7253093 14.4227848,14.7193087 14.5465093,18.2329465 L14.5508379,18.5438512 C14.5508379,19.4731002 13.8986127,20.2504996 13.0288396,20.3762293 C11.6080848,20.5820896 10.0789744,20.6940953 8.48459959,20.6940953 C6.72162523,20.6940953 5.03730278,20.5572978 3.49145791,20.3089373 C2.6350724,20.1712544 2,19.3973967 2,18.4805436 C2,14.8131313 4.80971425,12.7253093 8.27541896,12.7253093 Z M16.9632618,12.4252637 C19.6608914,12.4252637 21.8617125,14.0064571 21.9787053,16.7943422 L21.983597,17.0800972 C21.983597,17.8234964 21.4618168,18.4454159 20.7659984,18.5459997 C19.6293945,18.7106879 18.4061062,18.8002925 17.1306063,18.8002925 C16.6669527,18.8002925 16.2100992,18.7884653 15.7617462,18.765528 L15.7667003,18.6041284 L15.7667003,18.5408209 C15.7667003,17.9095393 15.695329,17.3107217 15.559571,16.748712 C15.8843986,16.7714111 16.214536,16.7857868 16.5476663,16.7935333 L17.1306063,16.8002925 C17.9032977,16.8002925 18.6623833,16.7647948 19.3971919,16.6955448 L19.959,16.635 L19.9420587,16.5125291 C19.7311097,15.2547344 18.7271361,14.4907626 17.1695457,14.4292819 L16.9632618,14.4252637 C16.1025181,14.4252637 15.390985,14.6395919 14.8768444,15.0179329 C14.5439753,14.4303061 14.122936,13.9064577 13.6284268,13.4545869 C14.5146846,12.7813867 15.6830266,12.4252637 16.9632618,12.4252637 Z M8.27541896,14.7253093 C5.73799024,14.7253093 4.10140674,16.0717673 4.00454991,18.2718045 L4.002,18.363 L4.44562173,18.4286068 C5.51763255,18.5742333 6.64059184,18.661516 7.791144,18.686565 L8.48459959,18.6940953 C9.74680952,18.6940953 10.9810333,18.6194997 12.1587104,18.4749099 L12.549,18.422 L12.546288,18.2718045 C12.452458,16.1405185 10.9136305,14.8102965 8.51064421,14.729239 L8.27541896,14.7253093 Z M16.8000843,5.09374767 C18.4570843,5.09374767 19.8000843,6.40854458 19.8000843,8.03073258 C19.8000843,9.65292057 18.4570843,11.0937477 16.8000843,11.0937477 C15.1430843,11.0937477 13.8000843,9.65292057 13.8000843,8.03073258 C13.8000843,6.40854458 15.1430843,5.09374767 16.8000843,5.09374767 Z M16.8000843,7.09374767 C16.2382655,7.09374767 15.8000843,7.52272552 15.8000843,8.03073258 C15.8000843,8.58834204 16.2874407,9.09374767 16.8000843,9.09374767 C17.3127278,9.09374767 17.8000843,8.58834204 17.8000843,8.03073258 C17.8000843,7.52272552 17.3619031,7.09374767 16.8000843,7.09374767 Z" id="形状结合" fill="#000000"></path>
    </g>
</svg>