<?xml version="1.0" encoding="UTF-8"?>
<svg width="24px" height="24px" viewBox="0 0 24 24" version="1.1" xmlns="http://www.w3.org/2000/svg" xmlns:xlink="http://www.w3.org/1999/xlink">
    <title>Icon / person</title>
    <g id="Icon-/-person" stroke="none" stroke-width="1" fill="none" fill-rule="evenodd" fill-opacity="0.86">
        <path d="M11.8575912,10.9977342 C9.37209117,10.9977342 7.35759117,8.83703763 7.35759117,6.40436824 C7.35759117,3.97169884 9.37209117,2 11.8575912,2 C14.3430912,2 16.3575912,3.97169884 16.3575912,6.40436824 C16.3575912,8.83703763 14.3430912,10.9977342 11.8575912,10.9977342 Z M4,19.2229216 C4,20.3731874 4.8096,21.3440541 5.90133333,21.5167884 C7.872,21.8283766 10.0192,22 12.2666667,22 C14.2992,22 16.2485333,21.8594798 18.0597333,21.6012115 C19.1685333,21.4434735 20,20.4681635 20,19.302346 L20,19.2229216 C20,14.621858 16.4181333,12.0025176 12,12.0025176 C7.58186667,12.0025176 4,14.621858 4,19.2229216 Z" id="形状结合" fill="#000000"></path>
    </g>
</svg>