<?xml version="1.0" encoding="UTF-8"?>
<svg width="24px" height="24px" viewBox="0 0 24 24" version="1.1" xmlns="http://www.w3.org/2000/svg" xmlns:xlink="http://www.w3.org/1999/xlink">
    <title>Icon / person_outline</title>
    <g id="Icon-/-person_outline" stroke="none" stroke-width="1" fill="none" fill-rule="evenodd" fill-opacity="0.86">
        <path d="M11.8575912,2 C14.3430912,2 16.3575912,3.97169884 16.3575912,6.40436824 C16.3575912,8.83703763 14.3430912,10.9977342 11.8575912,10.9977342 C9.37209117,10.9977342 7.35759117,8.83703763 7.35759117,6.40436824 C7.35759117,3.97169884 9.37209117,2 11.8575912,2 Z M11.8575912,3.99949648 C10.4672735,3.99949648 9.35759117,5.08559813 9.35759117,6.40436824 C9.35759117,7.78474642 10.5280406,8.99823768 11.8575912,8.99823768 C13.1871417,8.99823768 14.3575912,7.78474642 14.3575912,6.40436824 C14.3575912,5.08559813 13.2479088,3.99949648 11.8575912,3.99949648 Z M12,12.0025176 C16.3315033,12.0025176 19.8592131,14.5201458 19.9958894,18.9545613 L20,19.302346 C20,20.4681635 19.1685333,21.4434735 18.0597333,21.6012115 C16.2485333,21.8594798 14.2992,22 12.2666667,22 C10.0192,22 7.872,21.8283766 5.90133333,21.5167884 C4.8096,21.3440541 4,20.3731874 4,19.2229216 C4,14.621858 7.58186667,12.0025176 12,12.0025176 Z M12,14.0020141 C8.37142381,14.0020141 6,16.0167328 6,19.2229216 C6,19.3992043 6.10402187,19.5244762 6.21375607,19.5418384 C8.11969431,19.8431922 10.1646642,20.0005035 12.2666667,20.0005035 C14.1715492,20.0005035 16.0280633,19.8711852 17.7779796,19.6216558 C17.8771753,19.6075442 17.9694383,19.5132801 17.9937747,19.3749916 L18,19.302346 L18,19.2229216 C18,16.0167328 15.6285762,14.0020141 12,14.0020141 Z" id="形状结合" fill="#000000"></path>
    </g>
</svg>