<?xml version="1.0" encoding="UTF-8"?>
<svg width="24px" height="24px" viewBox="0 0 24 24" version="1.1" xmlns="http://www.w3.org/2000/svg" xmlns:xlink="http://www.w3.org/1999/xlink">
    <title>Icon / power</title>
    <g id="Icon-/-power" stroke="none" stroke-width="1" fill="none" fill-rule="evenodd" fill-opacity="0.86">
        <path d="M13,3 L11,3 L11,13 L13,13 L13,3 Z M17.83,5.17 L16.41,6.59 C17.99,7.86 19,9.81 19,12 C19,15.87 15.87,19 12,19 C8.13,19 5,15.87 5,12 C5,9.81 6.01,7.86 7.58,6.58 L6.17,5.17 C4.23,6.82 3,9.26 3,12 C3,16.97 7.03,21 12,21 C16.97,21 21,16.97 21,12 C21,9.26 19.77,6.82 17.83,5.17 Z" id="Shape" fill="#000000"></path>
    </g>
</svg>