<?xml version="1.0" encoding="UTF-8"?>
<svg width="24px" height="24px" viewBox="0 0 24 24" version="1.1" xmlns="http://www.w3.org/2000/svg" xmlns:xlink="http://www.w3.org/1999/xlink">
    <title>Icon / rich_text</title>
    <g id="Icon-/-rich_text" stroke="none" stroke-width="1" fill="none" fill-rule="evenodd" fill-opacity="0.86">
        <path d="M20.2,3 C20.6418278,3 21,3.3581722 21,3.8 L21,20.2 C21,20.6418278 20.6418278,21 20.2,21 L3.8,21 C3.3581722,21 3,20.6418278 3,20.2 L3,3.8 C3,3.3581722 3.3581722,3 3.8,3 L20.2,3 Z M15.76,10 C15.8925483,10 16,9.89254834 16,9.76000001 L16,9.76000001 L16,8.23999999 C16,8.10745166 15.8925483,8 15.76,8 L15.76,8 L8.23999999,8 C8.10745166,8 8,8.10745166 8,8.23999999 L8,8.23999999 L8,9.76000001 C8,9.89254834 8.10745166,10 8.23999999,10 L8.23999999,10 L11,10 L11,15.76 C11,15.8925483 11.1074517,16 11.24,16 L11.24,16 L12.76,16 C12.8925483,16 13,15.8925483 13,15.76 L13,15.76 L13,10 Z" id="形状结合" fill="#000000"></path>
    </g>
</svg>