<?xml version="1.0" encoding="UTF-8"?>
<svg width="24px" height="24px" viewBox="0 0 24 24" version="1.1" xmlns="http://www.w3.org/2000/svg" xmlns:xlink="http://www.w3.org/1999/xlink">
    <title>Icon / rocket</title>
    <g id="Icon-/-rocket" stroke="none" stroke-width="1" fill="none" fill-rule="evenodd" fill-opacity="0.86">
        <path d="M20.730957,3.73431681 C20.6769096,3.50289181 20.4962124,3.3221915 20.2647915,3.26814314 C16.8556836,2.48514012 13.136994,3.41662614 10.4883758,6.0671012 C10.1148677,6.44052172 9.77037951,6.84188222 9.45790738,7.26769177 C9.36994406,7.38767843 9.24245974,7.47277321 9.09791228,7.50798567 C7.64876633,7.86998014 6.32614413,8.62123685 5.27305226,9.68052725 C4.77792009,10.1752112 4.3467698,10.7300294 3.98969083,11.3319985 C3.68729847,11.8432075 4.20568789,12.4461922 4.76366271,12.241002 C5.66360116,11.9144766 6.61426041,11.7499345 7.57158932,11.7550001 C7.5580895,11.8387074 7.53827923,11.9215007 7.52658993,12.004294 C8.21373596,12.8042642 8.93060776,13.5782122 9.67569739,14.32451 C10.421896,15.0696953 11.1958217,15.7865882 11.9958377,16.4736726 C12.0786295,16.4619831 12.1614213,16.4421725 12.2442132,16.4286724 C12.2495696,17.3859574 12.0853401,18.3366255 11.7591339,19.2366305 C11.5539472,19.7946327 12.1560249,20.3130311 12.6681039,20.0106335 C13.2701024,19.6532542 13.8249113,19.2217949 14.3195463,18.7263532 C15.3788,17.6732095 16.1300502,16.3505617 16.492085,14.9013911 C16.5272122,14.7570318 16.6119525,14.6296081 16.7314958,14.5413897 C17.158076,14.2291132 17.559467,13.8844048 17.9329443,13.5118174 C20.5833731,10.8613423 21.5148428,7.14350184 20.731871,3.73433439 L20.730957,3.73431681 Z M16.4605855,10.5364446 C15.9250764,11.0719599 15.1445566,11.2811008 14.4130404,11.0850858 C13.6815241,10.8890709 13.1101461,10.3176796 12.9141389,9.58614938 C12.7181317,8.85461919 12.9272735,8.07408699 13.4627825,7.53857172 C14.2903554,6.71073684 15.6323168,6.71053615 16.4601372,7.53812348 C17.2879576,8.3657108 17.2881583,9.70769566 16.4605855,10.5355305 L16.4605855,10.5364446 Z M5.4737214,15.9795672 C4.89145394,16.5627413 2.42191921,20.1717025 3.12478855,20.8754982 C3.82677899,21.5774833 7.43657358,19.107923 8.01975509,18.5265243 C8.60204013,17.9433326 8.50393795,16.9011567 7.80105104,16.1982575 C7.0981817,15.4953758 6.05510997,15.397272 5.47373898,15.9795672 L5.4737214,15.9795672 Z" id="Shape" fill="#000000"></path>
    </g>
</svg>