<?xml version="1.0" encoding="UTF-8"?>
<svg width="24px" height="24px" viewBox="0 0 24 24" version="1.1" xmlns="http://www.w3.org/2000/svg" xmlns:xlink="http://www.w3.org/1999/xlink">
    <title>Icon / save_outline</title>
    <g id="Icon-/-save_outline" stroke="none" stroke-width="1" fill="none" fill-rule="evenodd" fill-opacity="0.86">
        <path d="M17,3 L5,3 C3.89,3 3,3.9 3,5 L3,19 C3,20.1 3.89,21 5,21 L19,21 C20.1,21 21,20.1 21,19 L21,7 L17,3 Z M19,19 L5,19 L5,5 L16.17,5 L19,7.83 L19,19 Z M12,12 C10.34,12 9,13.34 9,15 C9,16.66 10.34,18 12,18 C13.66,18 15,16.66 15,15 C15,13.34 13.66,12 12,12 Z M6,6 L15,6 L15,10 L6,10 L6,6 Z" id="形状" fill="#000000"></path>
    </g>
</svg>