<?xml version="1.0" encoding="UTF-8"?>
<svg width="24px" height="24px" viewBox="0 0 24 24" version="1.1" xmlns="http://www.w3.org/2000/svg" xmlns:xlink="http://www.w3.org/1999/xlink">
    <title>Icon / search</title>
    <g id="Icon-/-search" stroke="none" stroke-width="1" fill="none" fill-rule="evenodd" fill-opacity="0.86">
        <path d="M11.0737968,4.4 C14.7586384,4.4 17.7475936,7.38749142 17.7475936,11.075 C17.7475936,12.5262445 17.2846431,13.8690654 16.4985205,14.9640255 L19.2991984,17.7655734 C19.7119576,18.1783326 19.7119576,18.8475475 19.2991984,19.2603068 C18.8864391,19.673066 18.2172242,19.673066 17.8044649,19.2603068 L15.0102428,16.4657581 C13.9065608,17.273322 12.5456959,17.75 11.0737968,17.75 C7.38895523,17.75 4.4,14.7625086 4.4,11.075 C4.4,7.38749142 7.38895523,4.4 11.0737968,4.4 Z M11.075,6.4 C8.49219226,6.4 6.4,8.49395819 6.4,11.075 C6.4,13.6560418 8.49219226,15.75 11.075,15.75 C13.6578077,15.75 15.75,13.6560418 15.75,11.075 C15.75,8.49395819 13.6578077,6.4 11.075,6.4 Z" id="Oval" fill="#000000"></path>
    </g>
</svg>
