<?xml version="1.0" encoding="UTF-8"?>
<svg width="24px" height="24px" viewBox="0 0 24 24" version="1.1" xmlns="http://www.w3.org/2000/svg" xmlns:xlink="http://www.w3.org/1999/xlink">
    <title>Icon / send</title>
    <g id="Icon-/-send" stroke="none" stroke-width="1" fill="none" fill-rule="evenodd" fill-opacity="0.86">
        <path d="M3.46137713,19.6391463 L5.01223414,12.7348502 C5.03507313,12.6331728 5.12196651,12.5585583 5.22592807,12.5513532 L15.2544421,11.8563289 L5.22472335,11.1032955 C5.12134453,11.0955338 5.03517136,11.0211413 5.01240416,10.9200024 L3.46258327,4.03522118 C3.34345637,3.50602285 3.67588495,2.98045141 4.20508328,2.86132451 C4.42605746,2.81158141 4.65743294,2.8397423 4.86002409,2.94103787 L20.8943492,10.9582004 C21.3795231,11.2007874 21.5761786,11.790754 21.3335917,12.2759279 C21.2385527,12.4660059 21.0844272,12.6201314 20.8943492,12.7151704 L4.85891768,20.7328862 C4.37374382,20.9754731 3.78377714,20.7788175 3.54119021,20.2936437 C3.43996443,20.0911921 3.4117705,19.8599913 3.46137713,19.6391463 Z" id="路径" fill="#000000"></path>
    </g>
</svg>