<?xml version="1.0" encoding="UTF-8"?>
<svg width="24px" height="24px" viewBox="0 0 24 24" version="1.1" xmlns="http://www.w3.org/2000/svg" xmlns:xlink="http://www.w3.org/1999/xlink">
    <title>Icon / setting</title>
    <g id="Icon-/-setting" stroke="none" stroke-width="1" fill="none" fill-rule="evenodd" fill-opacity="0.86">
        <path d="M16.9841962,3.5 C17.3721789,3.5 17.7251456,3.72441989 17.8897445,4.07575701 L21.4034413,11.575757 C21.5293768,11.8445668 21.5293768,12.1554332 21.4034413,12.424243 L17.8897445,19.924243 C17.7251456,20.2755801 17.3721789,20.5 16.9841962,20.5 L7.08215167,20.5 C6.6968641,20.5 6.34584571,20.2786527 6.17979256,19.930985 L2.59764089,12.430985 C2.46745304,12.1584089 2.46745304,11.8415911 2.59764089,11.569015 L6.17979256,4.06901504 C6.34584571,3.72134729 6.6968641,3.5 7.08215167,3.5 L16.9841962,3.5 Z M11.9482086,8.5 C10.015212,8.5 8.44820863,10.0498407 8.44820863,11.9616662 C8.44820863,13.8734916 10.015212,15.4233323 11.9482086,15.4233323 C13.8812053,15.4233323 15.4482086,13.8734916 15.4482086,11.9616662 C15.4482086,10.0498407 13.8812053,8.5 11.9482086,8.5 Z" id="形状结合" fill="#000000"></path>
    </g>
</svg>