<?xml version="1.0" encoding="UTF-8"?>
<svg width="24px" height="24px" viewBox="0 0 24 24" version="1.1" xmlns="http://www.w3.org/2000/svg" xmlns:xlink="http://www.w3.org/1999/xlink">
    <title>Icon / sort</title>
    <g id="Icon-/-sort" stroke="none" stroke-width="1" fill="none" fill-rule="evenodd" fill-opacity="0.86">
        <path d="M5.95454545,6 L18.0454545,6 C18.5726354,6 19,6.42736456 19,6.95454545 L19,7.04545455 C19,7.57263544 18.5726354,8 18.0454545,8 L5.95454545,8 C5.42736456,8 5,7.57263544 5,7.04545455 L5,6.95454545 C5,6.42736456 5.42736456,6 5.95454545,6 Z M7.86363636,11.0909091 L16.1363636,11.0909091 C16.6635445,11.0909091 17.0909091,11.5182736 17.0909091,12.0454545 C17.0909091,12.5726354 16.6635445,13 16.1363636,13 L7.86363636,13 C7.33645547,13 6.90909091,12.5726354 6.90909091,12.0454545 C6.90909091,11.5182736 7.33645547,11.0909091 7.86363636,11.0909091 Z M9.77272727,16.1818182 L14.2272727,16.1818182 C14.7544536,16.1818182 15.1818182,16.6091827 15.1818182,17.1363636 C15.1818182,17.6635445 14.7544536,18.0909091 14.2272727,18.0909091 L9.77272727,18.0909091 C9.24554638,18.0909091 8.81818182,17.6635445 8.81818182,17.1363636 C8.81818182,16.6091827 9.24554638,16.1818182 9.77272727,16.1818182 Z" id="sort" fill="#000000"></path>
    </g>
</svg>