<svg xmlns="http://www.w3.org/2000/svg" width="24" height="24" viewBox="0 0 24 24"><defs><clipPath id="a"><path d="M10,0 C15.52,0 20,4.48 20,10 C20,15.52 15.52,20 10,20 C4.48,20 0,15.52 0,10 C0,4.48 4.48,0 10,0 Z M3.69,5.1 C2.63,6.45 2,8.15 2,10 C2,14.42 5.58,18 10,18 C11.85,18 13.55,17.37 14.9,16.31 Z M10,2 C8.15,2 6.45,2.63 5.1,3.69 L16.31,14.9 C17.37,13.55 18,11.85 18,10 C18,5.58 14.42,2 10,2 Z"/></clipPath></defs><g clip-path="url(#a)" transform="translate(2 2)"><polygon fill="rgba(0, 0, 0, 0.86)" points="0 0 20 0 20 20 0 20 0 0"/></g></svg>
