<svg xmlns="http://www.w3.org/2000/svg" width="24" height="24" viewBox="0 0 24 24"><defs><clipPath id="a"><path d="M3,0 C3.55228475,-1.01453063e-16 4,0.44771525 4,1 L4,3 C4,3.55228475 3.55228475,4 3,4 L1,4 C0.44771525,4 6.76353751e-17,3.55228475 0,3 L0,1 C-6.76353751e-17,0.44771525 0.44771525,1.01453063e-16 1,0 L3,0 Z"/></clipPath><clipPath id="b"><path d="M9,0 C9.55228475,-1.01453063e-16 10,0.44771525 10,1 L10,9 C10,9.55228475 9.55228475,10 9,10 L1,10 C0.44771525,10 6.76353751e-17,9.55228475 0,9 L0,1 C-6.76353751e-17,0.44771525 0.44771525,1.01453063e-16 1,0 L9,0 Z"/></clipPath></defs><g clip-path="url(#a)" transform="translate(4 4)"><polygon fill="rgba(0, 0, 0, 0.86)" points="0 0 4 0 4 4 0 4 0 0"/></g><g clip-path="url(#a)" transform="translate(4 10)"><polygon fill="rgba(0, 0, 0, 0.86)" points="0 0 4 0 4 4 0 4 0 0"/></g><g clip-path="url(#b)" transform="translate(10 10)"><polygon fill="rgba(0, 0, 0, 0.86)" points="0 0 10 0 10 10 0 10 0 0"/></g><g clip-path="url(#a)" transform="translate(4 16)"><polygon fill="rgba(0, 0, 0, 0.86)" points="0 0 4 0 4 4 0 4 0 0"/></g><g clip-path="url(#a)" transform="translate(10 4)"><polygon fill="rgba(0, 0, 0, 0.86)" points="0 0 4 0 4 4 0 4 0 0"/></g><g clip-path="url(#a)" transform="translate(16 4)"><polygon fill="rgba(0, 0, 0, 0.86)" points="0 0 4 0 4 4 0 4 0 0"/></g></svg>