<?xml version="1.0" encoding="UTF-8"?>
<svg width="24px" height="24px" viewBox="0 0 24 24" version="1.1" xmlns="http://www.w3.org/2000/svg" xmlns:xlink="http://www.w3.org/1999/xlink">
    <title>Icon / tree_outline</title>
    <g id="Icon-/-tree_outline" stroke="none" stroke-width="1" fill="none" fill-rule="evenodd" fill-opacity="0.86">
        <path d="M9.3,4 L9.3,6.66666667 L14.7,6.66666667 L14.7,4 L21,4 L21,11.1111111 L14.7,11.1111111 L14.7,8.44444444 L12.9,8.44444444 L12.9,15.5555556 L14.7,15.5555556 L14.7,12.8888889 L21,12.8888889 L21,20 L14.7,20 L14.7,17.3333333 L11.1,17.3333333 L11.1,8.44444444 L9.3,8.44444444 L9.3,11.1111111 L3,11.1111111 L3,4 L9.3,4 Z M19,15 L17,15 L17,18 L19,18 L19,15 Z M7,6 L5,6 L5,9 L7,9 L7,6 Z M19,6 L17,6 L17,9 L19,9 L19,6 Z" id="Path-2" fill="#000000"></path>
    </g>
</svg>