<svg xmlns="http://www.w3.org/2000/svg" width="24" height="24" viewBox="0 0 24 24"><path fill-opacity=".86" fill-rule="evenodd" d="M17 14 17 19.76C17 19.8925483 16.8925483 20 16.76 20L15.24 20C15.1074517 20 15 19.8925483 15 19.76L15 14 17 14ZM19.76 12C19.8925483 12 20 12.1074517 20 12.24L20 13.76C20 13.8925483 19.8925483 14 19.76 14L12.24 14C12.1074517 14 12 13.8925483 12 13.76L12 12.24C12 12.1074517 12.1074517 12 12.24 12L19.76 12ZM10 8 10 19.76C10 19.8925483 9.89254834 20 9.76000001 20L8.23999999 20C8.10745166 20 8 19.8925483 8 19.76L8 8 10 8ZM14.76 6C14.8925483 6 15 6.10745166 15 6.23999999L15 7.76000001C15 7.89254834 14.8925483 8 14.76 8L3.23999999 8C3.10745166 8 3 7.89254834 3 7.76000001L3 6.23999999C3 6.10745166 3.10745166 6 3.23999999 6L14.76 6Z"/></svg>