<?xml version="1.0" encoding="UTF-8"?>
<svg width="24px" height="24px" viewBox="0 0 24 24" version="1.1" xmlns="http://www.w3.org/2000/svg" xmlns:xlink="http://www.w3.org/1999/xlink">
    <title>Icon / useless</title>
    <g id="Icon-/-useless" stroke="none" stroke-width="1" fill="none" fill-rule="evenodd" fill-opacity="0.86">
        <path d="M22,3 L20,3 C19.45,3 19,3.45 19,4 L19,13 C19,13.55 19.45,14 20,14 L22,14 L22,3 Z M2.17,10.12 C2.06,10.37 2,10.64 2,10.92 L2,12 C2,13.1 2.9,14 4,14 L9.5,14 L8.58,18.65 C8.53,18.87 8.56,19.11 8.66,19.31 C8.89,19.76 9.18,20.17 9.54,20.53 L10,21 L16.41,14.59 C16.79,14.21 17,13.7 17,13.17 L17,5.34 C17,4.05 15.95,3 14.66,3 L6.56,3 C5.85,3 5.2,3.37 4.84,3.97 L2.17,10.12 Z" id="Shape" fill="#000000"></path>
    </g>
</svg>