<?xml version="1.0" encoding="UTF-8"?>
<svg width="24px" height="24px" viewBox="0 0 24 24" version="1.1" xmlns="http://www.w3.org/2000/svg" xmlns:xlink="http://www.w3.org/1999/xlink">
    <title>Icon / video</title>
    <g id="Icon-/-video" stroke="none" stroke-width="1" fill="none" fill-rule="evenodd" fill-opacity="0.86">
        <path d="M17,10.5 L17,7 C17,6.45 16.55,6 16,6 L4,6 C3.45,6 3,6.45 3,7 L3,17 C3,17.55 3.45,18 4,18 L16,18 C16.55,18 17,17.55 17,17 L17,13.5 L21,17.5 L21,6.5 L17,10.5 Z M14,13 L11,13 L11,16 L9,16 L9,13 L6,13 L6,11 L9,11 L9,8 L11,8 L11,11 L14,11 L14,13 Z" id="Shape" fill="#000000"></path>
    </g>
</svg>