<svg xmlns="http://www.w3.org/2000/svg" width="24" height="24" viewBox="0 0 24 24"><defs><clipPath id="water_drop"><path d="M8,0 C13.33,4.55 16,8.48 16,11.8 C16,16.78 12.2,20 8,20 C3.8,20 0,16.78 0,11.8 C0,8.48 2.67,4.55 8,0 Z M3.83,12 C3.37,12 3.01,12.42 3.09,12.87 C3.66,15.9 6.15,17.12 8.28,16.99 C8.68,16.97 9,16.64 9,16.24 C9,15.81 8.64,15.47 8.21,15.49 C6.85,15.6 4.98,14.84 4.57,12.62 C4.5,12.26 4.2,12 3.83,12 Z"/></clipPath></defs><g clip-path="url(#water_drop)" transform="translate(4 2)"><polygon fill="rgba(0, 0, 0, 0.86)" points="0 0 16 0 16 20 0 20 0 0"/></g></svg>