<?xml version="1.0" encoding="UTF-8"?>
<svg width="24px" height="24px" viewBox="0 0 24 24" version="1.1" xmlns="http://www.w3.org/2000/svg" xmlns:xlink="http://www.w3.org/1999/xlink">
    <title>Icon / wecom</title>
    <g id="Icon-/-wecom" stroke="none" stroke-width="1" fill="none" fill-rule="evenodd">
        <path d="M15.7919366,13.5169327 C15.7852656,13.5223908 15.7786957,13.5281522 15.77253,13.5344189 C15.7617149,13.545234 15.7522138,13.5569588 15.7438245,13.5690879 C15.7210824,13.5932451 15.6981382,13.6172001 15.6744864,13.6408518 C15.2103457,14.1049925 14.6389635,14.3967987 14.0401898,14.5164726 C14.0064304,14.5184941 13.9728732,14.5222339 13.9394171,14.5275909 C13.9026254,14.5334533 13.866137,14.5413372 13.8300529,14.5511416 C13.6616604,14.5971312 13.5025669,14.6858758 13.3703596,14.8180831 C12.9653484,15.2231954 12.9653484,15.8798857 13.3703596,16.284998 C13.7754719,16.6901103 14.4321622,16.6901103 14.8372745,16.284998 C14.9800948,16.1422788 15.072276,15.968125 15.1144247,15.7848744 C15.1190742,15.7643559 15.1231172,15.7437365 15.1265538,15.7230159 C15.1300915,15.7021942 15.1330227,15.6812715 15.1352463,15.6602477 C15.2495632,15.0466158 15.5439974,14.4598701 16.018751,13.9851164 C16.0530157,13.9508517 16.087988,13.9176988 16.1233646,13.8853545 L16.1231624,13.8851523 C16.2199932,13.7883216 16.2199932,13.6313507 16.1231624,13.5344189 C16.0325984,13.4437538 15.8893738,13.4380935 15.7919366,13.5169327" id="Fill-32" fill="#FFCC00"></path>
        <path d="M17.3342845,8.44873317 C17.0458138,7.85592287 16.6581876,7.30556445 16.18212,6.81312255 C14.9793165,5.56908006 13.2953916,4.7678512 11.4405473,4.55700682 C11.1076032,4.51910335 10.7775903,4.5 10.4596054,4.5 C10.1565798,4.5 9.84061646,4.51758721 9.52040793,4.55245841 C7.6572754,4.75501456 5.96395043,5.5520993 4.75235331,6.7969504 C4.27416311,7.28838155 3.88441435,7.8373249 3.59402321,8.42851798 C3.1998271,9.23085868 3,10.0826255 3,10.9599645 C3,12.089488 3.34365815,13.2032436 3.99408172,14.180951 C4.36179594,14.7340385 4.99069035,15.4486453 5.52891965,15.8865062 L5.52891965,15.8866073 L5.23084674,17.1196325 L5.14493221,17.4669294 C5.12987189,17.501093 5.11814709,17.5368739 5.10995994,17.5740698 C5.10480507,17.596913 5.10328893,17.6206658 5.10106526,17.6444187 C5.09934697,17.6623091 5.09560716,17.6796942 5.09560716,17.6981911 C5.09560716,18.0151652 5.35254216,18.2722013 5.66971841,18.2722013 C5.77342231,18.2722013 5.86924229,18.242586 5.95313531,18.194676 C5.95576328,18.1930588 5.9585934,18.1918459 5.9611203,18.1902287 C5.97345157,18.1830523 5.98608606,18.1765834 5.99770979,18.1684974 L8.12687415,17.0998216 C8.5851524,17.2314225 9.03999406,17.3154165 9.51939717,17.3681782 C9.83101425,17.4024429 10.1473819,17.419828 10.4596054,17.419828 C10.7779946,17.419828 11.1080075,17.4006236 11.4405473,17.3628212 C12.0944074,17.2885304 12.7233018,17.1378261 13.3204584,16.9235452 C13.2558709,16.9021171 13.1923952,16.874018 13.1312443,16.8390457 C12.7658548,16.6300207 12.5768428,16.2326912 12.614342,15.8393037 C12.1877005,15.9748466 11.7421578,16.0719805 11.2815549,16.1243378 C11.0020799,16.1561768 10.7254351,16.1722478 10.4596054,16.1722478 C10.1983242,16.1722478 9.93360631,16.157794 9.67272935,16.1289873 C9.6183505,16.1230239 9.56407273,16.1147356 9.50979496,16.1074582 C9.15137973,16.0597503 8.79731076,15.9865714 8.45506768,15.8864051 C8.38532529,15.8640673 8.31143879,15.8528479 8.235834,15.8528479 C8.11777732,15.8528479 8.00325829,15.8840804 7.88722313,15.9442205 C7.87216282,15.9520034 7.85720358,15.9585733 7.84204219,15.967468 L6.47589999,16.7725378 L6.47448493,16.7732453 C6.44608259,16.7897207 6.43021367,16.7959874 6.41555766,16.7959874 C6.3675466,16.7959874 6.32853129,16.7554559 6.32853129,16.7054233 L6.37896818,16.5014521 C6.39311881,16.4476797 6.41303076,16.3718728 6.43718791,16.2797926 C6.49692378,16.0522707 6.57849205,15.741159 6.63913761,15.5103016 C6.65227748,15.4630991 6.66572058,15.4064966 6.66572058,15.3427177 C6.66572058,15.1669467 6.58152433,15.0007779 6.44133202,14.8986912 C6.3700735,14.8459295 6.29881497,14.790641 6.22391771,14.7297933 C6.10919653,14.6363992 5.99952915,14.5391641 5.89400589,14.4389979 C5.59734805,14.1576025 5.33707754,13.8506349 5.11824816,13.5216328 C4.60326632,12.7473912 4.33106886,11.8687382 4.33106886,10.9807862 C4.33106886,10.2915494 4.48864623,9.62141605 4.79935362,8.98878184 C5.03152502,8.51625189 5.34415286,8.07626838 5.72884783,7.68096044 C6.72484999,6.65776885 8.12545909,6.00158394 9.67262827,5.8333936 C9.94189454,5.80408159 10.2066124,5.78922343 10.4596054,5.78922343 C10.725233,5.78922343 11.0017767,5.80539557 11.2815549,5.83713341 C12.8215476,6.01219692 14.2139696,6.67161625 15.2025932,7.69410031 C15.5854688,8.09011579 15.8963784,8.53111005 16.1269326,9.00475183 C16.4326872,9.63324193 16.5877377,10.2980183 16.5877377,10.9807862 C16.5877377,11.0517415 16.5831893,11.1223935 16.5797527,11.1932478 C16.9792048,10.9487451 17.5071243,10.9966551 17.852905,11.3424358 C17.8704923,11.359922 17.8851483,11.3790253 17.9010172,11.3974211 C17.9124388,11.2519729 17.9188066,11.1061203 17.9188066,10.9599645 C17.9188066,10.0907116 17.7221128,9.24581791 17.3342845,8.44873317" id="Fill-33" fill="#0079DE"></path>
        <path d="M14.9950237,16.7965736 C15.0004818,16.8032446 15.0062431,16.8098146 15.0125098,16.8159802 C15.023325,16.8268964 15.0350498,16.8362964 15.0471789,16.8447868 C15.0712349,16.8674278 15.095291,16.8904731 15.1189428,16.9140238 C15.5830834,17.3782656 15.8748896,17.9495467 15.9945635,18.5483205 C15.996585,18.5820798 16.0003248,18.615637 16.0056819,18.6490932 C16.0115443,18.6858848 16.0194282,18.7224743 16.0292326,18.7584573 C16.0752221,18.9268498 16.1639668,19.0859433 16.2961741,19.2181506 C16.7011853,19.6232629 17.3579767,19.6232629 17.763089,19.2181506 C18.1682013,18.8130383 18.1682013,18.156348 17.763089,17.7512357 C17.6202687,17.6084154 17.446216,17.5162342 17.2628642,17.4740855 C17.2424469,17.469436 17.2218274,17.465393 17.2011068,17.4619564 C17.1802852,17.4584188 17.1593625,17.4555886 17.1383387,17.4532639 C16.5247067,17.338947 15.937961,17.0445129 15.4631063,16.5697592 C15.4288416,16.5354945 15.3956887,16.5005222 15.3633444,16.4652467 L15.3632433,16.4653478 C15.2664126,16.3685171 15.1093406,16.3685171 15.0125098,16.4653478 C14.9218447,16.5559118 14.9160834,16.6991364 14.9950237,16.7965736" id="Fill-29" fill="#FB6500"></path>
        <path d="M18.2746646,17.5935371 C18.2813356,17.588079 18.2878044,17.5823176 18.2940711,17.5760509 C18.3048863,17.5652358 18.3143874,17.553511 18.3227767,17.5413819 C18.3455188,17.5172247 18.368463,17.4932697 18.3921148,17.469618 C18.8562554,17.0054773 19.4275366,16.7136711 20.0264114,16.5939972 C20.0601708,16.5919757 20.093728,16.5882359 20.1271841,16.5828789 C20.1639758,16.5770165 20.2004642,16.5691326 20.2365483,16.5593282 C20.4049408,16.5133387 20.5640343,16.424594 20.6962416,16.2923867 C21.1012528,15.8872744 21.1012528,15.2305841 20.6962416,14.8254718 C20.2911293,14.4203595 19.634439,14.4203595 19.2293267,14.8254718 C19.0865064,14.968191 18.9943251,15.1423448 18.9521765,15.3255955 C18.9474259,15.3461139 18.943484,15.3667334 18.9400474,15.3874539 C18.9365097,15.4082756 18.9335785,15.4291983 18.9313548,15.4502221 C18.8169369,16.063854 18.5226038,16.6505998 18.0478502,17.1253534 C18.0135854,17.1596181 17.9786132,17.192771 17.9432366,17.2251153 L17.9434388,17.2253175 C17.8465069,17.3221482 17.8465069,17.4791191 17.9434388,17.5760509 C18.0340028,17.666716 18.1772274,17.6723763 18.2746646,17.5935371" id="Fill-30" fill="#0082EF"></path>
        <path d="M19.0715775,14.3138962 C19.0661194,14.3072252 19.0603581,14.3006553 19.0540913,14.2944896 C19.0432762,14.2835734 19.0315514,14.2741734 19.0194223,14.265683 C18.9952652,14.243042 18.9713102,14.2199967 18.9476584,14.196446 C18.4835177,13.7322042 18.1917115,13.1609231 18.0720377,12.5621493 C18.0700161,12.52839 18.0662763,12.4948328 18.0609193,12.4613766 C18.0550569,12.424585 18.047173,12.3879955 18.0373686,12.3520125 C17.9913791,12.18362 17.9026344,12.0245265 17.7704271,11.8923192 C17.3654159,11.4872069 16.7086245,11.4872069 16.3035122,11.8923192 C15.8983999,12.2974315 15.8983999,12.9541218 16.3035122,13.3592341 C16.4463325,13.5020544 16.6203852,13.5942356 16.8036359,13.6363843 C16.8241543,13.6410338 16.8447738,13.6450768 16.8654943,13.6485134 C16.886316,13.65195 16.9072387,13.6548812 16.9282625,13.6572059 C17.5418944,13.7715228 18.1286402,14.065957 18.6034949,14.5407106 C18.6377596,14.5749753 18.6709125,14.6099476 18.7032568,14.6452231 L18.7033579,14.645122 C18.8001886,14.7419527 18.9572606,14.7419527 19.0540913,14.645122 C19.1447564,14.554558 19.1505178,14.4113334 19.0715775,14.3138962" id="Fill-31" fill="#2DBC00"></path>
    </g>
</svg>