<?xml version="1.0" encoding="UTF-8"?>
<svg width="24px" height="24px" viewBox="0 0 24 24" version="1.1" xmlns="http://www.w3.org/2000/svg" xmlns:xlink="http://www.w3.org/1999/xlink">
    <title>Icon / work_outline</title>
    <g id="Icon-/-work_outline" stroke="none" stroke-width="1" fill="none" fill-rule="evenodd" fill-opacity="0.86">
        <path d="M13.8,3 C14.799,3 15.6,3.801 15.6,4.8 L15.6,6.6 L19.2,6.6 C20.199,6.6 21,7.401 21,8.4 L21,18.3 C21,19.299 20.199,20.1 19.2,20.1 L4.8,20.1 C3.801,20.1 3,19.299 3,18.3 L3.009,8.4 C3.009,7.401 3.801,6.6 4.8,6.6 L8.4,6.6 L8.4,4.8 C8.4,3.801 9.201,3 10.2,3 L13.8,3 Z M19.2,8.4 L4.8,8.4 L4.8,18.3 L19.2,18.3 L19.2,8.4 Z M15,10 L15,12 L9,12 L9,10 L15,10 Z M13.8,4.8 L10.2,4.8 L10.2,6.6 L13.8,6.6 L13.8,4.8 Z" id="形状结合" fill="#000000"></path>
    </g>
</svg>