<?xml version="1.0" encoding="UTF-8"?>
<svg width="24px" height="24px" viewBox="0 0 24 24" version="1.1" xmlns="http://www.w3.org/2000/svg" xmlns:xlink="http://www.w3.org/1999/xlink">
    <title>Icon / work</title>
    <g id="Icon-/-work" stroke="none" stroke-width="1" fill="none" fill-rule="evenodd" fill-opacity="0.86">
        <path d="M19.2,6.6 L15.6,6.6 L15.6,4.8 C15.6,3.801 14.799,3 13.8,3 L10.2,3 C9.201,3 8.4,3.801 8.4,4.8 L8.4,6.6 L4.8,6.6 C3.801,6.6 3.009,7.401 3.009,8.4 L3,18.3 C3,19.299 3.801,20.1 4.8,20.1 L19.2,20.1 C20.199,20.1 21,19.299 21,18.3 L21,8.4 C21,7.401 20.199,6.6 19.2,6.6 Z M9,10 L15,10 L15,12 L9,12 L9,10 Z M13.8,6.6 L10.2,6.6 L10.2,4.8 L13.8,4.8 L13.8,6.6 Z" id="Shape" fill="#000000"></path>
    </g>
</svg>